<?xml version="1.0" encoding="UTF-8"?>
<!DOCTYPE svg PUBLIC "-//W3C//DTD SVG 1.1//EN" "http://www.w3.org/Graphics/SVG/1.1/DTD/svg11.dtd">
<svg xmlns="http://www.w3.org/2000/svg" version="1.1" width="400px" height="400px" style="shape-rendering:geometricPrecision; text-rendering:geometricPrecision; image-rendering:optimizeQuality; fill-rule:evenodd; clip-rule:evenodd" xmlns:xlink="http://www.w3.org/1999/xlink">
<g><path style="opacity:1" fill="#1c1c1a" d="M 179.5,-0.5 C 192.833,-0.5 206.167,-0.5 219.5,-0.5C 304.538,11.9461 361.705,58.6127 391,139.5C 394.818,152.765 397.651,166.099 399.5,179.5C 399.5,192.833 399.5,206.167 399.5,219.5C 387.054,304.538 340.387,361.705 259.5,391C 246.235,394.818 232.901,397.651 219.5,399.5C 206.167,399.5 192.833,399.5 179.5,399.5C 94.4616,387.054 37.295,340.387 8,259.5C 4.18196,246.235 1.34862,232.901 -0.5,219.5C -0.5,206.167 -0.5,192.833 -0.5,179.5C 11.9461,94.4616 58.6127,37.295 139.5,8C 152.765,4.18196 166.099,1.34862 179.5,-0.5 Z"/></g>
<g><path style="opacity:1" fill="#fafafa" d="M 61.5,127.5 C 71.1667,127.5 80.8333,127.5 90.5,127.5C 90.5,130.167 90.5,132.833 90.5,135.5C 83.5,135.5 76.5,135.5 69.5,135.5C 69.5,139.167 69.5,142.833 69.5,146.5C 75.5,146.5 81.5,146.5 87.5,146.5C 87.5,149.167 87.5,151.833 87.5,154.5C 81.5,154.5 75.5,154.5 69.5,154.5C 69.5,158.5 69.5,162.5 69.5,166.5C 76.5,166.5 83.5,166.5 90.5,166.5C 90.5,169.167 90.5,171.833 90.5,174.5C 81.1667,174.5 71.8333,174.5 62.5,174.5C 61.5162,158.911 61.1829,143.244 61.5,127.5 Z"/></g>
<g><path style="opacity:1" fill="#f4f4f4" d="M 125.5,155.5 C 125.56,156.043 125.893,156.376 126.5,156.5C 127.498,147.525 127.832,138.525 127.5,129.5C 130.167,129.5 132.833,129.5 135.5,129.5C 135.5,144.833 135.5,160.167 135.5,175.5C 134.448,175.649 133.448,175.483 132.5,175C 123.723,165.552 114.889,156.052 106,146.5C 105.5,155.827 105.334,165.161 105.5,174.5C 102.5,174.5 99.5,174.5 96.5,174.5C 96.5,159.167 96.5,143.833 96.5,128.5C 98.1992,128.34 99.8659,128.506 101.5,129C 109.4,138.001 117.4,146.834 125.5,155.5 Z"/></g>
<g><path style="opacity:1" fill="#8a8a89" d="M 135.5,129.5 C 132.833,129.5 130.167,129.5 127.5,129.5C 127.832,138.525 127.498,147.525 126.5,156.5C 125.893,156.376 125.56,156.043 125.5,155.5C 126.493,146.682 126.827,137.682 126.5,128.5C 129.713,128.19 132.713,128.523 135.5,129.5 Z"/></g>
<g><path style="opacity:1" fill="#b5b5b3" d="M 61.5,127.5 C 61.1829,143.244 61.5162,158.911 62.5,174.5C 61.169,167.03 60.5023,159.196 60.5,151C 60.5003,142.993 60.8336,135.159 61.5,127.5 Z"/></g>
<g><path style="opacity:1" fill="#fcfcfa" d="M 61.5,189.5 C 86.8333,189.5 112.167,189.5 137.5,189.5C 137.5,191.167 137.5,192.833 137.5,194.5C 112.167,194.5 86.8333,194.5 61.5,194.5C 61.5,192.833 61.5,191.167 61.5,189.5 Z"/></g>
<g><path style="opacity:1" fill="#c1c1bf" d="M 61.5,189.5 C 61.5,191.167 61.5,192.833 61.5,194.5C 86.8333,194.5 112.167,194.5 137.5,194.5C 112.005,195.498 86.3388,195.831 60.5,195.5C 60.2053,193.265 60.5386,191.265 61.5,189.5 Z"/></g>
<g><path style="opacity:1" fill="#f7f7f7" d="M 92.5,211.5 C 103.191,213.025 108.858,219.192 109.5,230C 109.164,239.231 104.83,245.397 96.5,248.5C 99.6556,256.494 103.489,264.16 108,271.5C 108.49,272.793 108.657,274.127 108.5,275.5C 104.154,275.666 99.8206,275.499 95.5,275C 91.7361,267.063 87.7361,259.23 83.5,251.5C 80.2317,250.513 76.8984,250.18 73.5,250.5C 73.5,258.833 73.5,267.167 73.5,275.5C 69.8333,275.5 66.1667,275.5 62.5,275.5C 61.5118,254.242 61.1785,232.909 61.5,211.5C 71.8333,211.5 82.1667,211.5 92.5,211.5 Z"/></g>
<g><path style="opacity:1" fill="#fafafa" d="M 189.5,211.5 C 193.5,211.5 197.5,211.5 201.5,211.5C 201.333,226.17 201.5,240.837 202,255.5C 206.828,264.886 213.994,267.052 223.5,262C 225,259.833 226.5,257.667 228,255.5C 228.5,240.837 228.667,226.17 228.5,211.5C 232.5,211.5 236.5,211.5 240.5,211.5C 240.667,226.837 240.5,242.17 240,257.5C 236.47,269.7 228.303,276.367 215.5,277.5C 204.002,277.154 195.836,271.821 191,261.5C 189.559,244.89 189.059,228.223 189.5,211.5 Z"/></g>
<g><path style="opacity:1" fill="#fcfcfb" d="M 265.5,276.5 C 265.5,258.5 265.5,240.5 265.5,222.5C 260.833,222.5 256.167,222.5 251.5,222.5C 249.586,219.316 248.92,215.649 249.5,211.5C 264.167,211.5 278.833,211.5 293.5,211.5C 293.5,215.167 293.5,218.833 293.5,222.5C 288.167,222.5 282.833,222.5 277.5,222.5C 277.5,240.5 277.5,258.5 277.5,276.5C 273.5,276.5 269.5,276.5 265.5,276.5 Z"/></g>
<g><path style="opacity:1" fill="#f6f6f6" d="M 343.5,222.5 C 333.833,222.5 324.167,222.5 314.5,222.5C 314.179,227.695 314.513,232.695 315.5,237.5C 323.5,237.5 331.5,237.5 339.5,237.5C 339.5,241.5 339.5,245.5 339.5,249.5C 331.5,249.5 323.5,249.5 315.5,249.5C 314.512,254.64 314.179,259.974 314.5,265.5C 324.167,265.5 333.833,265.5 343.5,265.5C 344.82,268.899 344.82,272.399 343.5,276C 330.167,276.667 316.833,276.667 303.5,276C 302.839,265.408 302.505,254.741 302.5,244C 302.505,233.259 302.839,222.592 303.5,212C 316.833,211.333 330.167,211.333 343.5,212C 344.82,215.601 344.82,219.101 343.5,222.5 Z"/></g>
<g><path style="opacity:1" fill="#f5f5f5" d="M 139.5,210.5 C 160.508,207.912 174.341,216.579 181,236.5C 183.073,256.08 174.906,269.247 156.5,276C 128.207,278.706 114.374,265.873 115,237.5C 117.841,223.5 126.008,214.5 139.5,210.5 Z"/></g>
<g><path style="opacity:1" fill="#999999" d="M 343.5,222.5 C 334.348,223.494 325.015,223.827 315.5,223.5C 315.5,228.167 315.5,232.833 315.5,237.5C 314.513,232.695 314.179,227.695 314.5,222.5C 324.167,222.5 333.833,222.5 343.5,222.5 Z"/></g>
<g><path style="opacity:1" fill="#1c1c1b" d="M 142.5,222.5 C 161.515,221.679 170.015,230.679 168,249.5C 161.916,263.203 151.749,267.37 137.5,262C 127.146,254.314 124.646,244.48 130,232.5C 132.887,227.434 137.054,224.101 142.5,222.5 Z"/></g>
<g><path style="opacity:1" fill="#1c1c1a" d="M 73.5,222.5 C 79.5092,222.334 85.5092,222.501 91.5,223C 99.0744,227.874 99.4078,233.208 92.5,239C 86.2584,240.37 79.9251,240.87 73.5,240.5C 73.5,234.5 73.5,228.5 73.5,222.5 Z"/></g>
<g><path style="opacity:1" fill="#b6b6b4" d="M 92.5,211.5 C 82.1667,211.5 71.8333,211.5 61.5,211.5C 61.1785,232.909 61.5118,254.242 62.5,275.5C 60.511,254.192 59.8443,232.526 60.5,210.5C 71.3464,210.172 82.0131,210.506 92.5,211.5 Z"/></g>
<g><path style="opacity:1" fill="#484846" d="M 251.5,222.5 C 256.167,222.5 260.833,222.5 265.5,222.5C 265.5,240.5 265.5,258.5 265.5,276.5C 264.503,259.008 264.17,241.341 264.5,223.5C 259.968,223.818 255.634,223.485 251.5,222.5 Z"/></g>
<g><path style="opacity:1" fill="#717170" d="M 315.5,249.5 C 315.5,254.5 315.5,259.5 315.5,264.5C 325.015,264.173 334.348,264.506 343.5,265.5C 333.833,265.5 324.167,265.5 314.5,265.5C 314.179,259.974 314.512,254.64 315.5,249.5 Z"/></g>
</svg>
