<?xml version="1.0" encoding="UTF-8"?>
<!DOCTYPE svg PUBLIC "-//W3C//DTD SVG 1.1//EN" "http://www.w3.org/Graphics/SVG/1.1/DTD/svg11.dtd">
<svg xmlns="http://www.w3.org/2000/svg" version="1.1" width="500px" height="500px" style="shape-rendering:geometricPrecision; text-rendering:geometricPrecision; image-rendering:optimizeQuality; fill-rule:evenodd; clip-rule:evenodd" xmlns:xlink="http://www.w3.org/1999/xlink">
<g><path style="opacity:1" fill="#edd4bc" d="M -0.5,-0.5 C 166.167,-0.5 332.833,-0.5 499.5,-0.5C 499.5,166.167 499.5,332.833 499.5,499.5C 332.833,499.5 166.167,499.5 -0.5,499.5C -0.5,332.833 -0.5,166.167 -0.5,-0.5 Z"/></g>
<g><path style="opacity:1" fill="#64482d" d="M 118.5,161.5 C 135.87,160.011 150.704,165.344 163,177.5C 166.422,182.678 170.089,187.678 174,192.5C 179.958,202.097 182.125,212.597 180.5,224C 180.333,230.5 180.167,237 180,243.5C 177.418,251.26 176.085,259.26 176,267.5C 173.735,270.674 171.235,273.508 168.5,276C 166.688,287.929 164.521,299.762 162,311.5C 158.288,316.948 153.121,320.281 146.5,321.5C 146.294,327.871 142.961,331.038 136.5,331C 131.833,331.667 127.167,331.667 122.5,331C 117.751,326.884 117.418,322.551 121.5,318C 124.544,316.077 127.877,315.244 131.5,315.5C 137.131,316.004 142.464,317.171 147.5,319C 153.866,317.297 158.366,313.464 161,307.5C 163.156,300.26 163.656,292.926 162.5,285.5C 152.971,288.471 147.971,284.971 147.5,275C 149.331,264.511 151.164,254.011 153,243.5C 156.256,236.403 161.756,233.903 169.5,236C 170.333,236.833 171.167,237.667 172,238.5C 172.333,243.167 172.667,247.833 173,252.5C 173.893,253.711 174.726,253.711 175.5,252.5C 178.1,241.002 179.1,229.336 178.5,217.5C 174.727,218.178 171.894,216.844 170,213.5C 165.029,199.521 157.196,187.355 146.5,177C 119.241,165.893 99.0748,173.393 86,199.5C 84.5099,206.462 83.1765,213.462 82,220.5C 81.1687,224.172 79.3354,227.172 76.5,229.5C 75.1495,240.547 76.6495,251.213 81,261.5C 82.298,260.44 83.4647,259.274 84.5,258C 83.0812,253.917 82.5812,249.75 83,245.5C 92.5442,236.41 100.211,237.743 106,249.5C 108.412,259.819 111.745,269.819 116,279.5C 117.526,285.281 115.359,288.781 109.5,290C 106.167,290.667 102.833,290.667 99.5,290C 96.8752,287.256 94.8752,284.089 93.5,280.5C 80.8571,280.352 75.6904,274.018 78,261.5C 74.9733,250.674 72.8066,239.674 71.5,228.5C 70.914,228.291 70.414,227.957 70,227.5C 70.0525,212.907 73.0525,198.907 79,185.5C 89.3455,172.749 102.512,164.749 118.5,161.5 Z"/></g>
<g><path style="opacity:1" fill="#e6ccb4" d="M 80.5,206.5 C 79.7093,208.309 79.7093,210.309 80.5,212.5C 80.8222,216.747 79.9889,220.747 78,224.5C 74.1675,227.673 72.0009,226.839 71.5,222C 72.9566,212.34 75.1232,202.84 78,193.5C 84.3628,180.482 94.5294,171.649 108.5,167C 124.854,162.056 140.187,164.056 154.5,173C 163.543,182.041 171.043,192.208 177,203.5C 177.498,206.817 177.665,210.15 177.5,213.5C 175.533,213.739 173.699,213.406 172,212.5C 170.333,207.833 168.667,203.167 167,198.5C 162.156,190.812 156.823,183.479 151,176.5C 146.12,172.707 140.62,170.373 134.5,169.5C 127.559,169.676 120.559,169.843 113.5,170C 109.086,170.676 104.753,172.343 100.5,175C 96.9704,179.192 93.4704,183.358 90,187.5C 89.586,187.043 89.086,186.709 88.5,186.5C 84.1802,192.478 81.5136,199.144 80.5,206.5 Z"/></g>
<g><path style="opacity:1" fill="#705439" d="M 222.5,192.5 C 226.384,193.197 230.217,194.197 234,195.5C 236.18,199.414 235.846,203.081 233,206.5C 233.796,203.97 234.129,201.304 234,198.5C 232.89,196.963 231.39,196.297 229.5,196.5C 230.401,200.241 229.068,202.241 225.5,202.5C 225.162,199.843 225.829,197.51 227.5,195.5C 224.41,192.926 221.91,193.592 220,197.5C 219.558,200.305 220.058,202.972 221.5,205.5C 220.976,208.396 219.476,209.063 217,207.5C 216.503,205.19 216.337,202.857 216.5,200.5C 210.294,201.558 208.128,205.224 210,211.5C 211.167,213.333 212.333,215.167 213.5,217C 212.833,217.667 212.167,217.667 211.5,217C 204.628,207.63 206.628,201.296 217.5,198C 218.692,195.645 220.359,193.812 222.5,192.5 Z"/></g>
<g><path style="opacity:1" fill="#9e836a" d="M 80.5,206.5 C 81.7416,208.611 81.7416,210.611 80.5,212.5C 79.7093,210.309 79.7093,208.309 80.5,206.5 Z"/></g>
<g><path style="opacity:1" fill="#63472d" d="M 76.5,220.5 C 77.7125,221.497 77.5458,222.497 76,223.5C 75.5304,222.423 75.6971,221.423 76.5,220.5 Z"/></g>
<g><path style="opacity:1" fill="#5e4227" d="M 404.5,239.5 C 405.437,244.122 406.104,248.455 406.5,252.5C 406.636,257.554 404.469,259.22 400,257.5C 398.978,255.298 398.478,252.965 398.5,250.5C 399.008,247.151 399.175,243.818 399,240.5C 397.249,242.49 396.249,244.823 396,247.5C 395.667,252.167 395.333,256.833 395,261.5C 393.522,264.993 391.522,265.326 389,262.5C 387.053,258.716 385.72,254.716 385,250.5C 383.062,253.106 380.562,254.939 377.5,256C 371.157,266.18 365.49,265.68 360.5,254.5C 357.301,261.227 353.801,267.894 350,274.5C 346.442,279.587 342.108,280.587 337,277.5C 336.292,266.586 340.958,258.92 351,254.5C 352.434,247.02 350.601,245.853 345.5,251C 344.216,251.684 343.049,251.517 342,250.5C 343.695,245.708 344.362,240.708 344,235.5C 342.615,236.551 341.615,237.884 341,239.5C 339.921,247.101 336.754,253.601 331.5,259C 325.226,261.967 320.392,260.467 317,254.5C 315.579,258.869 313.079,262.369 309.5,265C 305.82,266.027 302.653,265.194 300,262.5C 298.733,266.869 296.567,270.703 293.5,274C 288.537,274.733 285.37,272.567 284,267.5C 283.244,260.783 283.411,254.117 284.5,247.5C 285.621,249.954 286.454,252.621 287,255.5C 288.552,248.529 289.552,241.529 290,234.5C 289.419,239.696 288.585,239.696 287.5,234.5C 287.851,232.131 288.018,229.797 288,227.5C 286.961,228.244 286.461,229.244 286.5,230.5C 284.805,229.174 283.472,229.507 282.5,231.5C 283.323,225.499 286.656,222.665 292.5,223C 293.701,223.903 294.535,225.069 295,226.5C 294.652,241.238 293.652,255.905 292,270.5C 294.106,268.623 295.439,266.29 296,263.5C 296.893,254.26 298.893,245.26 302,236.5C 303.401,234.808 305.234,234.141 307.5,234.5C 306.997,240.848 306.33,247.181 305.5,253.5C 305.667,255.833 305.833,258.167 306,260.5C 307.938,261.86 309.604,261.527 311,259.5C 314.129,251.976 316.796,244.309 319,236.5C 321.226,232.139 324.726,230.639 329.5,232C 332.134,234.915 332.134,237.748 329.5,240.5C 327.931,239.286 327.098,237.619 327,235.5C 325.26,236.716 324.26,238.382 324,240.5C 323.333,245.167 323.333,249.833 324,254.5C 326.376,258.205 329.042,258.205 332,254.5C 334.617,249.342 336.617,244.008 338,238.5C 339.829,232.637 343.662,230.137 349.5,231C 351.774,234.918 352.107,239.085 350.5,243.5C 354.928,244.092 358.095,246.425 360,250.5C 361.208,248.521 362.041,246.355 362.5,244C 360.732,235.768 364.065,232.434 372.5,234C 375.381,235.251 377.214,237.417 378,240.5C 378.333,244.167 378.667,247.833 379,251.5C 381.043,249.792 382.71,247.792 384,245.5C 384.203,241.579 384.703,237.745 385.5,234C 387.441,233.257 389.274,233.424 391,234.5C 391.895,237.583 392.895,240.583 394,243.5C 395.414,239.068 398.248,236.568 402.5,236C 403.823,236.816 404.489,237.983 404.5,239.5 Z"/></g>
<g><path style="opacity:1" fill="#5e4227" d="M 410.5,247.5 C 411.621,249.954 412.454,252.621 413,255.5C 414.552,248.529 415.552,241.529 416,234.5C 415.419,239.696 414.585,239.696 413.5,234.5C 413.851,232.131 414.018,229.797 414,227.5C 412.961,228.244 412.461,229.244 412.5,230.5C 410.805,229.174 409.472,229.507 408.5,231.5C 409.323,225.499 412.656,222.665 418.5,223C 419.701,223.903 420.535,225.069 421,226.5C 420.652,241.238 419.652,255.905 418,270.5C 420.106,268.623 421.439,266.29 422,263.5C 423.65,257.568 424.983,251.568 426,245.5C 426.414,245.043 426.914,244.709 427.5,244.5C 428.068,253.908 426.235,262.908 422,271.5C 416.283,276.208 412.283,274.875 410,267.5C 409.244,260.783 409.411,254.117 410.5,247.5 Z"/></g>
<g><path style="opacity:1" fill="#5e4227" d="M 303.5,225.5 C 307.138,224.737 308.638,226.07 308,229.5C 304.331,231.009 302.831,229.676 303.5,225.5 Z"/></g>
<g><path style="opacity:1" fill="#8c7157" d="M 205.5,237.5 C 205.796,235.597 206.463,233.93 207.5,232.5C 207.435,232.938 207.601,233.272 208,233.5C 208.849,231.494 210.015,230.828 211.5,231.5C 210.568,233.795 209.735,236.129 209,238.5C 208.333,235.833 207.667,235.833 207,238.5C 206.617,237.944 206.117,237.611 205.5,237.5 Z"/></g>
<g><path style="opacity:1" fill="#5d4126" d="M 278.5,239.5 C 279.437,244.122 280.104,248.455 280.5,252.5C 280.636,257.554 278.469,259.22 274,257.5C 272.978,255.298 272.478,252.965 272.5,250.5C 273.008,247.151 273.175,243.818 273,240.5C 271.249,242.49 270.249,244.823 270,247.5C 269.667,252.167 269.333,256.833 269,261.5C 267.522,264.993 265.522,265.326 263,262.5C 261.053,258.716 259.72,254.716 259,250.5C 257.062,253.106 254.562,254.939 251.5,256C 248.185,264.205 243.352,265.372 237,259.5C 236.333,257.5 235.667,255.5 235,253.5C 234.13,254.108 233.63,254.941 233.5,256C 235.088,261.185 234.755,266.185 232.5,271C 226.898,273.577 223.898,271.744 223.5,265.5C 224.193,260.948 225.859,256.781 228.5,253C 228.167,252.5 227.833,252 227.5,251.5C 225.73,257.226 222.397,261.726 217.5,265C 213.048,265.86 209.548,264.36 207,260.5C 204.413,252.952 203.913,245.286 205.5,237.5C 206.117,237.611 206.617,237.944 207,238.5C 207.667,235.833 208.333,235.833 209,238.5C 209.735,236.129 210.568,233.795 211.5,231.5C 210.015,230.828 208.849,231.494 208,233.5C 207.601,233.272 207.435,232.938 207.5,232.5C 211.092,223.086 217.426,220.919 226.5,226C 229.1,228.984 230.1,232.484 229.5,236.5C 228.022,236.762 226.689,236.429 225.5,235.5C 220.518,224.531 217.018,225.197 215,237.5C 214.333,244.833 214.333,252.167 215,259.5C 215.561,260.022 216.228,260.355 217,260.5C 218.767,259.66 220.101,258.327 221,256.5C 223.039,252.255 225.206,248.088 227.5,244C 228.996,243.493 230.163,243.993 231,245.5C 232.792,253.005 234.626,252.671 236.5,244.5C 234.498,236.027 237.832,232.527 246.5,234C 249.381,235.251 251.214,237.417 252,240.5C 252.333,244.167 252.667,247.833 253,251.5C 255.043,249.792 256.71,247.792 258,245.5C 258.203,241.579 258.703,237.745 259.5,234C 261.441,233.257 263.274,233.424 265,234.5C 265.895,237.583 266.895,240.583 268,243.5C 269.414,239.068 272.248,236.568 276.5,236C 277.823,236.816 278.489,237.983 278.5,239.5 Z"/></g>
<g><path style="opacity:1" fill="#8e7359" d="M 212.5,231.5 C 213.559,233.726 213.392,236.059 212,238.5C 211.666,236.153 211.833,233.819 212.5,231.5 Z"/></g>
<g><path style="opacity:1" fill="#e2c9b1" d="M 240.5,235.5 C 248.115,237.039 250.949,241.706 249,249.5C 246.247,252.045 244.08,251.378 242.5,247.5C 243.482,244.904 244.149,242.238 244.5,239.5C 240.509,240.128 239.176,238.795 240.5,235.5 Z"/></g>
<g><path style="opacity:1" fill="#e2c9b1" d="M 366.5,235.5 C 374.115,237.039 376.949,241.706 375,249.5C 372.247,252.045 370.08,251.378 368.5,247.5C 369.482,244.904 370.149,242.238 370.5,239.5C 366.509,240.128 365.176,238.795 366.5,235.5 Z"/></g>
<g><path style="opacity:1" fill="#80654b" d="M 286.5,230.5 C 283.88,237.646 281.88,244.98 280.5,252.5C 280.104,248.455 279.437,244.122 278.5,239.5C 280.128,237.012 281.462,234.345 282.5,231.5C 283.472,229.507 284.805,229.174 286.5,230.5 Z"/></g>
<g><path style="opacity:1" fill="#80654b" d="M 412.5,230.5 C 409.88,237.646 407.88,244.98 406.5,252.5C 406.104,248.455 405.437,244.122 404.5,239.5C 406.128,237.012 407.462,234.345 408.5,231.5C 409.472,229.507 410.805,229.174 412.5,230.5 Z"/></g>
<g><path style="opacity:1" fill="#876c52" d="M 157.5,240.5 C 160.25,243.038 163.583,244.538 167.5,245C 163.702,245.241 160.035,244.574 156.5,243C 157.252,242.329 157.586,241.496 157.5,240.5 Z"/></g>
<g><path style="opacity:1" fill="#896e54" d="M 287.5,234.5 C 288.585,239.696 289.419,239.696 290,234.5C 289.552,241.529 288.552,248.529 287,255.5C 286.454,252.621 285.621,249.954 284.5,247.5C 285.137,242.965 286.137,238.632 287.5,234.5 Z"/></g>
<g><path style="opacity:1" fill="#896e54" d="M 413.5,234.5 C 414.585,239.696 415.419,239.696 416,234.5C 415.552,241.529 414.552,248.529 413,255.5C 412.454,252.621 411.621,249.954 410.5,247.5C 411.137,242.965 412.137,238.632 413.5,234.5 Z"/></g>
<g><path style="opacity:1" fill="#d9bfa7" d="M 98.5,244.5 C 99.2891,244.783 99.9558,245.283 100.5,246C 95.4588,247.576 90.4588,248.909 85.5,250C 89.7168,247.549 94.0501,245.715 98.5,244.5 Z"/></g>
<g><path style="opacity:1" fill="#e2c8b0" d="M 93.5,252.5 C 91.323,252.586 89.323,253.253 87.5,254.5C 85.7295,253.965 85.3961,253.131 86.5,252C 91.2054,250.115 96.0388,248.615 101,247.5C 103.473,249.225 103.973,251.392 102.5,254C 97.4776,255.014 92.8109,256.848 88.5,259.5C 87.1667,258.167 87.1667,256.833 88.5,255.5C 90.3964,254.725 92.063,253.725 93.5,252.5 Z"/></g>
<g><path style="opacity:1" fill="#957a60" d="M 166.5,257.5 C 165.508,257.672 164.842,257.338 164.5,256.5C 163.515,255.381 161.849,254.381 159.5,253.5C 161.869,253.851 164.203,254.018 166.5,254C 162.511,252.669 158.511,251.335 154.5,250C 158.5,249.333 158.5,248.667 154.5,248C 157.544,247.641 157.878,246.974 155.5,246C 158.518,245.999 161.518,246.499 164.5,247.5C 166.135,246.954 167.801,246.62 169.5,246.5C 169.5,247.5 169.5,248.5 169.5,249.5C 166.402,249.413 166.068,249.913 168.5,251C 166.009,251.626 166.009,252.459 168.5,253.5C 167.359,254.425 167.359,255.259 168.5,256C 167.584,256.278 166.918,256.778 166.5,257.5 Z"/></g>
<g><path style="opacity:1" fill="#6f5339" d="M 93.5,252.5 C 95.8612,250.375 98.5279,249.709 101.5,250.5C 98.9881,251.795 96.3214,252.461 93.5,252.5 Z"/></g>
<g><path style="opacity:1" fill="#d6bda5" d="M 159.5,253.5 C 157.571,253.769 155.905,253.269 154.5,252C 156.391,251.797 158.057,252.297 159.5,253.5 Z"/></g>
<g><path style="opacity:1" fill="#8b7056" d="M 291.5,238.5 C 292.152,239.449 292.486,240.615 292.5,242C 291.721,247.175 290.887,252.342 290,257.5C 290.056,251.154 290.556,244.821 291.5,238.5 Z"/></g>
<g><path style="opacity:1" fill="#8b7056" d="M 417.5,238.5 C 418.152,239.449 418.486,240.615 418.5,242C 417.721,247.175 416.887,252.342 416,257.5C 416.056,251.154 416.556,244.821 417.5,238.5 Z"/></g>
<g><path style="opacity:1" fill="#d5bba3" d="M 242.5,253.5 C 245.719,254.021 246.719,255.688 245.5,258.5C 243.738,257.312 242.738,255.645 242.5,253.5 Z"/></g>
<g><path style="opacity:1" fill="#d5bba3" d="M 368.5,253.5 C 371.719,254.021 372.719,255.688 371.5,258.5C 369.738,257.312 368.738,255.645 368.5,253.5 Z"/></g>
<g><path style="opacity:1" fill="#e3cab2" d="M 99.5,260.5 C 95.9359,260.688 92.6026,261.688 89.5,263.5C 88.1667,262.5 88.1667,261.5 89.5,260.5C 94.4738,257.619 99.8071,255.953 105.5,255.5C 105.5,256.5 105.5,257.5 105.5,258.5C 103.102,258.259 101.102,258.926 99.5,260.5 Z"/></g>
<g><path style="opacity:1" fill="#d9bfa7" d="M 164.5,256.5 C 164.842,257.338 165.508,257.672 166.5,257.5C 167.525,257.897 167.692,258.563 167,259.5C 162.496,258.278 157.996,256.944 153.5,255.5C 154.167,255.167 154.833,254.833 155.5,254.5C 158.42,255.586 161.42,256.252 164.5,256.5 Z"/></g>
<g><path style="opacity:1" fill="#dec5ac" d="M 170.5,254.5 C 172.776,254.756 173.943,256.09 174,258.5C 174.79,261.634 174.457,264.634 173,267.5C 172.517,266.552 172.351,265.552 172.5,264.5C 171.5,264.5 170.5,264.5 169.5,264.5C 170.207,261.214 170.54,257.881 170.5,254.5 Z"/></g>
<g><path style="opacity:1" fill="#e3c9b1" d="M 349.5,258.5 C 349.619,265.302 347.119,271.302 342,276.5C 341.46,269.245 343.96,263.245 349.5,258.5 Z"/></g>
<g><path style="opacity:1" fill="#e2c8b0" d="M 152.5,257.5 C 157.468,258.659 162.468,259.659 167.5,260.5C 168.073,263.617 166.906,265.617 164,266.5C 160.468,265.6 156.968,264.6 153.5,263.5C 153.167,263.833 152.833,264.167 152.5,264.5C 156.916,265.972 161.249,267.638 165.5,269.5C 165,269.833 164.5,270.167 164,270.5C 159.99,268.773 155.823,267.773 151.5,267.5C 151.5,265.5 151.5,263.5 151.5,261.5C 156.062,261.464 160.396,262.464 164.5,264.5C 164.833,264.167 165.167,263.833 165.5,263.5C 160.639,262.23 156.305,260.23 152.5,257.5 Z"/></g>
<g><path style="opacity:1" fill="#e5cbb3" d="M 89.5,271.5 C 88.7354,271.077 87.9021,270.743 87,270.5C 85.1474,271.367 83.3141,272.367 81.5,273.5C 79.905,269.769 80.2383,266.269 82.5,263C 83.9437,262.219 85.277,262.386 86.5,263.5C 87.9,266.035 88.9,268.702 89.5,271.5 Z"/></g>
<g><path style="opacity:1" fill="#dbc1a8" d="M 101.5,263.5 C 97.7927,263.792 94.2927,264.792 91,266.5C 90.3828,265.551 90.5494,264.718 91.5,264C 94.4757,263.295 97.1423,262.129 99.5,260.5C 102.011,260.162 104.345,260.162 106.5,260.5C 105.053,261.935 103.386,262.935 101.5,263.5 Z"/></g>
<g><path style="opacity:1" fill="#e5ccb3" d="M 101.5,263.5 C 103.5,263.5 105.5,263.5 107.5,263.5C 107.5,264.5 107.5,265.5 107.5,266.5C 102.669,266.664 98.0027,267.664 93.5,269.5C 92.8333,269.167 92.1667,268.833 91.5,268.5C 91.8333,268.167 92.1667,267.833 92.5,267.5C 95.6741,266.308 98.6741,264.975 101.5,263.5 Z"/></g>
<g><path style="opacity:1" fill="#bea48b" d="M 228.5,259.5 C 229.803,262.355 229.803,265.355 228.5,268.5C 227.357,265.502 227.357,262.502 228.5,259.5 Z"/></g>
<g><path style="opacity:1" fill="#6e5237" d="M 181.5,260.5 C 182.8,262.223 183.467,264.39 183.5,267C 183.828,270.537 182.995,273.703 181,276.5C 181.722,273.988 182.222,271.321 182.5,268.5C 182.163,265.824 181.83,263.157 181.5,260.5 Z"/></g>
<g><path style="opacity:1" fill="#e1c7af" d="M 100.5,271.5 C 99.209,271.263 98.209,271.596 97.5,272.5C 96.4168,272.539 95.4168,272.873 94.5,273.5C 93.6143,272.675 93.281,271.675 93.5,270.5C 97.9304,269.976 102.264,268.976 106.5,267.5C 107.167,267.833 107.833,268.167 108.5,268.5C 106.142,270.287 103.475,271.287 100.5,271.5 Z"/></g>
<g><path style="opacity:1" fill="#e1c8af" d="M 150.5,268.5 C 154.858,269.506 159.191,270.673 163.5,272C 164.451,272.718 164.617,273.551 164,274.5C 160.311,272.951 156.477,271.785 152.5,271C 151.244,270.583 150.577,269.75 150.5,268.5 Z"/></g>
<g><path style="opacity:1" fill="#73573d" d="M 71.5,260.5 C 72.9932,266.473 74.4932,272.473 76,278.5C 72.3588,273.069 70.8588,267.069 71.5,260.5 Z"/></g>
<g><path style="opacity:1" fill="#a88e74" d="M 97.5,272.5 C 98.209,271.596 99.209,271.263 100.5,271.5C 103.659,272.073 106.992,272.24 110.5,272C 107.833,272.667 107.833,273.333 110.5,274C 105.717,276.023 100.717,277.023 95.5,277C 103.2,274.811 102.867,274.144 94.5,275C 96.087,274.138 97.7536,273.471 99.5,273C 98.9056,272.536 98.2389,272.369 97.5,272.5 Z"/></g>
<g><path style="opacity:1" fill="#d3b9a0" d="M 150.5,273.5 C 154.815,272.976 159.148,273.643 163.5,275.5C 162.432,276.434 161.099,276.768 159.5,276.5C 157.485,275.076 155.152,274.41 152.5,274.5C 152.158,273.662 151.492,273.328 150.5,273.5 Z"/></g>
<g><path style="opacity:1" fill="#72563c" d="M 65.5,248.5 C 62.3956,264.165 65.0622,278.998 73.5,293C 73.1667,293.167 72.8333,293.333 72.5,293.5C 63.3899,279.587 61.0566,264.587 65.5,248.5 Z"/></g>
<g><path style="opacity:1" fill="#8b7055" d="M 89.5,271.5 C 89.3433,272.873 89.51,274.207 90,275.5C 90.5556,273.405 91.0556,273.238 91.5,275C 90.5865,277.873 89.0865,278.04 87,275.5C 86,275.833 85,276.167 84,276.5C 83.3021,275.309 82.4687,274.309 81.5,273.5C 83.3141,272.367 85.1474,271.367 87,270.5C 87.9021,270.743 88.7354,271.077 89.5,271.5 Z"/></g>
<g><path style="opacity:1" fill="#684c31" d="M 152.5,274.5 C 155.152,274.41 157.485,275.076 159.5,276.5C 156.848,276.59 154.515,275.924 152.5,274.5 Z"/></g>
<g><path style="opacity:1" fill="#6d5137" d="M 185.5,261.5 C 186.117,261.611 186.617,261.944 187,262.5C 187.95,268.326 187.45,273.993 185.5,279.5C 186.619,273.693 186.619,267.693 185.5,261.5 Z"/></g>
<g><path style="opacity:1" fill="#b99e85" d="M 98.5,280.5 C 95.9172,279.908 95.9172,279.242 98.5,278.5C 102.747,277.685 106.914,276.685 111,275.5C 112.511,277.733 113.344,279.899 113.5,282C 111.728,283.487 109.728,283.82 107.5,283C 111.852,282.581 112.185,281.914 108.5,281C 112.185,280.086 111.852,279.419 107.5,279C 108.5,278.667 109.5,278.333 110.5,278C 106.203,277.759 102.203,278.592 98.5,280.5 Z"/></g>
<g><path style="opacity:1" fill="#94795f" d="M 150.5,273.5 C 151.492,273.328 152.158,273.662 152.5,274.5C 154.515,275.924 156.848,276.59 159.5,276.5C 161.099,276.768 162.432,276.434 163.5,275.5C 164.522,276.892 164.189,278.225 162.5,279.5C 160.088,278.182 157.754,278.349 155.5,280C 156.5,280.333 157.5,280.667 158.5,281C 155.253,281.438 152.253,280.772 149.5,279C 157.708,279.104 158.041,278.104 150.5,276C 149.402,275.23 149.402,274.397 150.5,273.5 Z"/></g>
<g><path style="opacity:1" fill="#b99f86" d="M 98.5,280.5 C 101.176,279.992 103.843,279.825 106.5,280C 103.828,280.834 101.161,281.668 98.5,282.5C 97.537,282.03 97.537,281.363 98.5,280.5 Z"/></g>
<g><path style="opacity:1" fill="#9c8167" d="M 97.5,284.5 C 99.4815,284.74 101.648,284.406 104,283.5C 107.104,283.851 106.937,284.351 103.5,285C 104.833,285.333 106.167,285.667 107.5,286C 105.179,286.837 102.845,287.17 100.5,287C 101.167,286.667 101.833,286.333 102.5,286C 100.753,285.648 99.0858,285.148 97.5,284.5 Z"/></g>
<g><path style="opacity:1" fill="#7a5f44" d="M 189.5,245.5 C 192.937,248.701 195.104,252.701 196,257.5C 197.355,263.785 197.689,270.118 197,276.5C 195.205,283.409 192.871,290.076 190,296.5C 192.537,287.549 194.37,278.383 195.5,269C 195.572,260.566 193.572,252.733 189.5,245.5 Z"/></g>
<g><path style="opacity:1" fill="#765a40" d="M 58.5,257.5 C 59.3285,264.321 59.8285,271.321 60,278.5C 61.4843,287.133 64.9843,294.8 70.5,301.5C 70.1667,301.833 69.8333,302.167 69.5,302.5C 59.3585,289.136 55.6919,274.136 58.5,257.5 Z"/></g>
<g><path style="opacity:1" fill="#6f5338" d="M 102.5,305.5 C 103.586,305.62 104.253,306.287 104.5,307.5C 103.425,313.134 103.258,318.801 104,324.5C 105.184,328.894 106.184,333.227 107,337.5C 104.685,334.223 103.351,330.556 103,326.5C 102.5,319.508 102.334,312.508 102.5,305.5 Z"/></g>
<g><path style="opacity:1" fill="#765a40" d="M 110.5,310.5 C 109.948,317.418 110.614,324.418 112.5,331.5C 112.167,331.833 111.833,332.167 111.5,332.5C 108.019,325.313 107.685,317.98 110.5,310.5 Z"/></g>
<g><path style="opacity:1" fill="#dbc1a9" d="M 125.5,325.5 C 124.883,325.389 124.383,325.056 124,324.5C 123.768,325.737 123.268,326.737 122.5,327.5C 119.358,323.76 120.025,320.927 124.5,319C 130.301,316.645 135.801,317.145 141,320.5C 139.65,322.57 139.15,324.904 139.5,327.5C 138.833,326.167 138.167,324.833 137.5,323.5C 137.346,324.909 137.179,326.576 137,328.5C 135.474,323.373 134.474,323.373 134,328.5C 133.529,326.754 132.862,325.087 132,323.5C 132.218,325.587 132.051,327.587 131.5,329.5C 130.813,327.726 129.98,326.059 129,324.5C 129.409,326.225 129.242,327.892 128.5,329.5C 127.719,328.271 127.219,326.938 127,325.5C 126.31,324.262 125.81,324.262 125.5,325.5 Z"/></g>
<g><path style="opacity:1" fill="#795e44" d="M 113.5,319.5 C 115.463,322.395 116.296,325.728 116,329.5C 114.236,326.443 113.402,323.11 113.5,319.5 Z"/></g>
<g><path style="opacity:1" fill="#9c8066" d="M 125.5,325.5 C 126.303,326.423 126.47,327.423 126,328.5C 124.791,328.347 123.625,328.014 122.5,327.5C 123.268,326.737 123.768,325.737 124,324.5C 124.383,325.056 124.883,325.389 125.5,325.5 Z"/></g>
</svg>
