<?xml version="1.0" encoding="UTF-8"?>
<!DOCTYPE svg PUBLIC "-//W3C//DTD SVG 1.1//EN" "http://www.w3.org/Graphics/SVG/1.1/DTD/svg11.dtd">
<svg xmlns="http://www.w3.org/2000/svg" version="1.1" width="500px" height="500px" style="shape-rendering:geometricPrecision; text-rendering:geometricPrecision; image-rendering:optimizeQuality; fill-rule:evenodd; clip-rule:evenodd" xmlns:xlink="http://www.w3.org/1999/xlink">
<g><path style="opacity:0.635" fill="#5b5b5b" d="M 184.5,-0.5 C 190.5,-0.5 196.5,-0.5 202.5,-0.5C 202.5,-0.166667 202.5,0.166667 202.5,0.5C 195.465,0.325721 188.465,0.659055 181.5,1.5C 182.5,0.833333 183.5,0.166667 184.5,-0.5 Z"/></g>
<g><path style="opacity:1" fill="#f9f9f9" d="M 202.5,0.5 C 206.674,0.333594 210.674,1.00026 214.5,2.5C 216.905,3.7682 219.572,4.43487 222.5,4.5C 222.833,4.5 223.167,4.5 223.5,4.5C 227.239,6.10161 231.239,7.10161 235.5,7.5C 237.905,8.7682 240.572,9.43487 243.5,9.5C 251.391,10.7225 259.058,12.7225 266.5,15.5C 268.102,17.0739 270.102,17.7406 272.5,17.5C 277.809,18.0756 282.809,19.409 287.5,21.5C 289.905,22.7682 292.572,23.4349 295.5,23.5C 300.728,24.3887 305.728,25.722 310.5,27.5C 312.515,28.9238 314.848,29.5905 317.5,29.5C 321.347,29.8944 325.014,30.8944 328.5,32.5C 330.515,33.9238 332.848,34.5905 335.5,34.5C 337.099,34.2322 338.432,34.5655 339.5,35.5C 339.5,36.8333 339.5,38.1667 339.5,39.5C 333.962,51.117 329.629,63.117 326.5,75.5C 325.292,76.2341 323.959,76.5674 322.5,76.5C 320.901,76.7678 319.568,76.4345 318.5,75.5C 316.485,74.0762 314.152,73.4095 311.5,73.5C 311.167,73.5 310.833,73.5 310.5,73.5C 307.916,71.5275 304.916,70.5275 301.5,70.5C 301.167,70.5 300.833,70.5 300.5,70.5C 298.485,69.0762 296.152,68.4095 293.5,68.5C 290.572,68.4349 287.905,67.7682 285.5,66.5C 283.162,64.9605 280.495,64.2938 277.5,64.5C 277.167,64.5 276.833,64.5 276.5,64.5C 274.898,62.9261 272.898,62.2594 270.5,62.5C 268.485,61.0762 266.152,60.4095 263.5,60.5C 259.239,60.1016 255.239,59.1016 251.5,57.5C 249.485,56.0762 247.152,55.4095 244.5,55.5C 244.167,55.5 243.833,55.5 243.5,55.5C 241.485,54.0762 239.152,53.4095 236.5,53.5C 235.833,53.5 235.167,53.5 234.5,53.5C 231.548,51.5902 228.214,50.5902 224.5,50.5C 206.116,44.7031 190.116,48.3697 176.5,61.5C 174.973,61.427 173.973,62.0937 173.5,63.5C 169.108,68.8943 164.108,73.561 158.5,77.5C 157.167,78.1667 156.167,79.1667 155.5,80.5C 154.5,80.8333 153.833,81.5 153.5,82.5C 135.5,101.167 117.167,119.5 98.5,137.5C 97.5,137.833 96.8333,138.5 96.5,139.5C 95.1667,140.167 94.1667,141.167 93.5,142.5C 91.5,143.833 89.8333,145.5 88.5,147.5C 87.0937,147.973 86.427,148.973 86.5,150.5C 78.8604,158.806 70.8604,166.806 62.5,174.5C 60.7376,175.262 59.7376,176.596 59.5,178.5C 55.1213,183.274 51.7879,188.607 49.5,194.5C 47.9704,197.695 47.3037,201.195 47.5,205C 47.3489,209.112 48.0156,212.946 49.5,216.5C 51.143,223.077 52.4764,229.744 53.5,236.5C 53.4095,239.152 54.0762,241.485 55.5,243.5C 55.5,243.833 55.5,244.167 55.5,244.5C 55.4095,247.152 56.0762,249.485 57.5,251.5C 58.7682,253.905 59.4349,256.572 59.5,259.5C 59.4095,262.152 60.0762,264.485 61.5,266.5C 62.7682,268.905 63.4349,271.572 63.5,274.5C 63.7424,278.479 64.7424,282.146 66.5,285.5C 66.5,285.833 66.5,286.167 66.5,286.5C 66.5275,289.916 67.5275,292.916 69.5,295.5C 70.9667,299.702 71.9667,304.035 72.5,308.5C 72.7234,312.162 73.7234,315.495 75.5,318.5C 76.8013,321.791 77.8013,325.291 78.5,329C 78.3552,329.772 78.0219,330.439 77.5,331C 73.1307,331.842 68.7974,332.842 64.5,334C 56.145,337.845 47.8117,341.678 39.5,345.5C 38.2223,345.218 37.2223,344.551 36.5,343.5C 36.7373,342.209 36.404,341.209 35.5,340.5C 34.7659,339.292 34.4326,337.959 34.5,336.5C 34.7678,334.901 34.4345,333.568 33.5,332.5C 31.2327,326.776 29.566,320.776 28.5,314.5C 28.7678,312.901 28.4345,311.568 27.5,310.5C 26.5655,309.432 26.2322,308.099 26.5,306.5C 26.7373,305.209 26.404,304.209 25.5,303.5C 23.3678,297.305 21.7011,290.972 20.5,284.5C 20.7373,283.209 20.404,282.209 19.5,281.5C 18.6993,279.958 18.366,278.292 18.5,276.5C 18.7373,275.209 18.404,274.209 17.5,273.5C 12.3922,257.404 8.05884,241.07 4.5,224.5C 4.67158,223.508 4.33825,222.842 3.5,222.5C 2.01461,215.74 0.68128,209.073 -0.5,202.5C -0.5,197.833 -0.5,193.167 -0.5,188.5C 0.254922,185.947 0.921588,183.28 1.5,180.5C 3.21321,179.365 3.87988,177.698 3.5,175.5C 3.6596,173.847 4.32627,172.514 5.5,171.5C 7.26242,170.738 8.26242,169.404 8.5,167.5C 10.5869,166.415 11.9202,164.749 12.5,162.5C 12.8333,161.5 13.5,160.833 14.5,160.5C 18.5658,157.437 21.8991,153.771 24.5,149.5C 29.5,143.833 34.8333,138.5 40.5,133.5C 41.5,133.167 42.1667,132.5 42.5,131.5C 42.8102,129.856 43.8102,128.856 45.5,128.5C 46.5,128.167 47.1667,127.5 47.5,126.5C 48.8333,125.833 49.8333,124.833 50.5,123.5C 51.8333,122.833 52.8333,121.833 53.5,120.5C 54.5,120.167 55.1667,119.5 55.5,118.5C 55.5,117.833 55.8333,117.5 56.5,117.5C 62.8333,111.833 68.8333,105.833 74.5,99.5C 76.5,98.1667 78.1667,96.5 79.5,94.5C 88.8333,85.8333 97.8333,76.8333 106.5,67.5C 113.5,61.1667 120.167,54.5 126.5,47.5C 127.5,47.1667 128.167,46.5 128.5,45.5C 129.833,44.8333 130.833,43.8333 131.5,42.5C 132.5,42.1667 133.167,41.5 133.5,40.5C 140.11,35.5588 146.11,29.8922 151.5,23.5C 155.473,20.1938 159.14,16.5271 162.5,12.5C 164.144,12.1898 165.144,11.1898 165.5,9.5C 167.404,9.26242 168.738,8.26242 169.5,6.5C 171.181,4.99249 173.181,3.99249 175.5,3.5C 177.698,3.87988 179.365,3.21321 180.5,1.5C 180.833,1.5 181.167,1.5 181.5,1.5C 188.465,0.659055 195.465,0.325721 202.5,0.5 Z"/></g>
<g><path style="opacity:0.875" fill="#696969" d="M 180.5,1.5 C 179.365,3.21321 177.698,3.87988 175.5,3.5C 176.93,2.46253 178.597,1.79586 180.5,1.5 Z"/></g>
<g><path style="opacity:0.545" fill="#575757" d="M 214.5,2.5 C 217.495,2.29379 220.162,2.96046 222.5,4.5C 219.572,4.43487 216.905,3.7682 214.5,2.5 Z"/></g>
<g><path style="opacity:0.006" fill="#353535" d="M 235.5,7.5 C 231.239,7.10161 227.239,6.10161 223.5,4.5C 223.435,4.06178 223.601,3.72845 224,3.5C 227.998,4.61673 231.832,5.95006 235.5,7.5 Z"/></g>
<g><path style="opacity:0.553" fill="#555555" d="M 169.5,6.5 C 168.738,8.26242 167.404,9.26242 165.5,9.5C 166.262,7.73758 167.596,6.73758 169.5,6.5 Z"/></g>
<g><path style="opacity:0.004" fill="#303030" d="M 235.5,7.5 C 238.495,7.29379 241.162,7.96046 243.5,9.5C 240.572,9.43487 237.905,8.7682 235.5,7.5 Z"/></g>
<g><path style="opacity:0.004" fill="#000000" d="M 162.5,11.5 C 161.833,10.1667 161.833,10.1667 162.5,11.5 Z"/></g>
<g><path style="opacity:0.914" fill="#707070" d="M 165.5,9.5 C 165.144,11.1898 164.144,12.1898 162.5,12.5C 162.5,12.1667 162.5,11.8333 162.5,11.5C 163.222,10.4489 164.222,9.78219 165.5,9.5 Z"/></g>
<g><path style="opacity:0.005" fill="#2d2d2d" d="M 162.5,12.5 C 159.14,16.5271 155.473,20.1938 151.5,23.5C 151.167,23.5 150.833,23.5 150.5,23.5C 153.603,20.1556 156.603,16.6556 159.5,13C 160.448,12.5172 161.448,12.3505 162.5,12.5 Z"/></g>
<g><path style="opacity:0.388" fill="#404040" d="M 266.5,15.5 C 268.786,15.595 270.786,16.2616 272.5,17.5C 270.102,17.7406 268.102,17.0739 266.5,15.5 Z"/></g>
<g><path style="opacity:1" fill="#fafafa" d="M 443.5,28.5 C 443.821,30.0481 444.821,30.7148 446.5,30.5C 447.035,32.4456 448.368,33.4456 450.5,33.5C 451.5,33.8333 452.167,34.5 452.5,35.5C 453.262,37.2624 454.596,38.2624 456.5,38.5C 456.427,40.0269 457.094,41.0269 458.5,41.5C 460.262,42.2623 461.262,43.5956 461.5,45.5C 461.427,47.0269 462.094,48.0269 463.5,48.5C 463.427,50.0269 464.094,51.0269 465.5,51.5C 468.662,55.9748 470.662,60.9748 471.5,66.5C 471.851,70.6836 472.518,74.6836 473.5,78.5C 474.833,82.1667 474.833,85.8333 473.5,89.5C 472.532,91.6074 472.198,93.9407 472.5,96.5C 467.815,120.359 454.148,136.859 431.5,146C 427.586,147.283 423.586,148.116 419.5,148.5C 412.5,148.5 405.5,148.5 398.5,148.5C 388.781,147.708 380.114,144.375 372.5,138.5C 372.027,137.094 371.027,136.427 369.5,136.5C 368.5,136.167 367.833,135.5 367.5,134.5C 367.027,133.094 366.027,132.427 364.5,132.5C 361.119,130.12 358.453,127.12 356.5,123.5C 356.446,121.368 355.446,120.035 353.5,119.5C 342.166,102.747 339.499,84.7466 345.5,65.5C 346.924,63.4855 347.59,61.1522 347.5,58.5C 347.975,56.2163 348.975,54.2163 350.5,52.5C 351.906,52.0269 352.573,51.0269 352.5,49.5C 354.262,48.7377 355.262,47.4044 355.5,45.5C 355.328,44.5084 355.662,43.8417 356.5,43.5C 360.5,40.1667 364.167,36.5 367.5,32.5C 367.842,31.6618 368.508,31.3284 369.5,31.5C 370.5,31.1667 371.167,30.5 371.5,29.5C 373.027,29.573 374.027,28.9063 374.5,27.5C 374.842,26.6618 375.508,26.3284 376.5,26.5C 378.027,26.573 379.027,25.9063 379.5,24.5C 381.05,23.5592 382.716,22.8925 384.5,22.5C 388.162,22.2766 391.495,21.2766 394.5,19.5C 411.992,15.7163 428.325,18.7163 443.5,28.5 Z"/></g>
<g><path style="opacity:0.796" fill="#737373" d="M 394.5,19.5 C 391.495,21.2766 388.162,22.2766 384.5,22.5C 387.505,20.7234 390.838,19.7234 394.5,19.5 Z"/></g>
<g><path style="opacity:0.004" fill="#282828" d="M 287.5,21.5 C 290.495,21.2938 293.162,21.9605 295.5,23.5C 292.572,23.4349 289.905,22.7682 287.5,21.5 Z"/></g>
<g><path style="opacity:0.475" fill="#3a3a3a" d="M 379.5,24.5 C 379.027,25.9063 378.027,26.573 376.5,26.5C 376.973,25.0937 377.973,24.427 379.5,24.5 Z"/></g>
<g><path style="opacity:0.006" fill="#282828" d="M 310.5,27.5 C 313.152,27.4095 315.485,28.0762 317.5,29.5C 314.848,29.5905 312.515,28.9238 310.5,27.5 Z"/></g>
<g><path style="opacity:0.455" fill="#393939" d="M 374.5,27.5 C 374.027,28.9063 373.027,29.573 371.5,29.5C 371.973,28.0937 372.973,27.427 374.5,27.5 Z"/></g>
<g><path style="opacity:0.125" fill="#272727" d="M 371.5,29.5 C 371.167,30.5 370.5,31.1667 369.5,31.5C 369.5,30.1667 370.167,29.5 371.5,29.5 Z"/></g>
<g><path style="opacity:0.933" fill="#727272" d="M 443.5,28.5 C 444.71,28.9321 445.71,29.5987 446.5,30.5C 444.821,30.7148 443.821,30.0481 443.5,28.5 Z"/></g>
<g><path style="opacity:0.945" fill="#666666" d="M 446.5,30.5 C 448.23,31.0256 449.564,32.0256 450.5,33.5C 448.368,33.4456 447.035,32.4456 446.5,30.5 Z"/></g>
<g><path style="opacity:0.875" fill="#959595" d="M 150.5,23.5 C 150.833,23.5 151.167,23.5 151.5,23.5C 146.11,29.8922 140.11,35.5588 133.5,40.5C 138.833,34.5 144.5,28.8333 150.5,23.5 Z"/></g>
<g><path style="opacity:0.008" fill="#282828" d="M 328.5,32.5 C 331.152,32.4095 333.485,33.0762 335.5,34.5C 332.848,34.5905 330.515,33.9238 328.5,32.5 Z"/></g>
<g><path style="opacity:0.631" fill="#555555" d="M 367.5,32.5 C 364.167,36.5 360.5,40.1667 356.5,43.5C 359.167,38.8333 362.833,35.1667 367.5,32.5 Z"/></g>
<g><path style="opacity:0.004" fill="#292929" d="M 452.5,35.5 C 454.404,35.7376 455.738,36.7376 456.5,38.5C 454.596,38.2624 453.262,37.2624 452.5,35.5 Z"/></g>
<g><path style="opacity:0.745" fill="#606060" d="M 339.5,35.5 C 341.781,36.6344 341.781,37.9678 339.5,39.5C 339.5,38.1667 339.5,36.8333 339.5,35.5 Z"/></g>
<g><path style="opacity:0.529" fill="#494949" d="M 456.5,38.5 C 457.906,38.9731 458.573,39.9731 458.5,41.5C 457.094,41.0269 456.427,40.0269 456.5,38.5 Z"/></g>
<g><path style="opacity:0.231" fill="#363636" d="M 133.5,40.5 C 133.167,41.5 132.5,42.1667 131.5,42.5C 131.5,41.1667 132.167,40.5 133.5,40.5 Z"/></g>
<g><path style="opacity:0.282" fill="#3f3f3f" d="M 131.5,42.5 C 130.833,43.8333 129.833,44.8333 128.5,45.5C 128.5,43.5 129.5,42.5 131.5,42.5 Z"/></g>
<g><path style="opacity:0.294" fill="#393939" d="M 128.5,45.5 C 128.167,46.5 127.5,47.1667 126.5,47.5C 126.5,46.1667 127.167,45.5 128.5,45.5 Z"/></g>
<g><path style="opacity:0.651" fill="#6c6c6c" d="M 355.5,45.5 C 355.262,47.4044 354.262,48.7377 352.5,49.5C 352.738,47.5956 353.738,46.2623 355.5,45.5 Z"/></g>
<g><path style="opacity:0.498" fill="#666666" d="M 461.5,45.5 C 462.906,45.9731 463.573,46.9731 463.5,48.5C 462.094,48.0269 461.427,47.0269 461.5,45.5 Z"/></g>
<g><path style="opacity:0.745" fill="#565656" d="M 224.5,50.5 C 228.214,50.5902 231.548,51.5902 234.5,53.5C 230.884,53.1007 227.55,52.1007 224.5,50.5 Z"/></g>
<g><path style="opacity:0.369" fill="#575757" d="M 463.5,48.5 C 464.906,48.9731 465.573,49.9731 465.5,51.5C 464.094,51.0269 463.427,50.0269 463.5,48.5 Z"/></g>
<g><path style="opacity:0.161" fill="#343434" d="M 352.5,49.5 C 352.573,51.0269 351.906,52.0269 350.5,52.5C 350.427,50.9731 351.094,49.9731 352.5,49.5 Z"/></g>
<g><path style="opacity:0.549" fill="#5f5f5f" d="M 236.5,53.5 C 239.152,53.4095 241.485,54.0762 243.5,55.5C 240.848,55.5905 238.515,54.9238 236.5,53.5 Z"/></g>
<g><path style="opacity:0.553" fill="#6a6a6a" d="M 244.5,55.5 C 247.152,55.4095 249.485,56.0762 251.5,57.5C 248.848,57.5905 246.515,56.9238 244.5,55.5 Z"/></g>
<g><path style="opacity:0.62" fill="#6d6d6d" d="M 263.5,60.5 C 266.152,60.4095 268.485,61.0762 270.5,62.5C 267.848,62.5905 265.515,61.9238 263.5,60.5 Z"/></g>
<g><path style="opacity:0.718" fill="#5a5a5a" d="M 347.5,58.5 C 347.59,61.1522 346.924,63.4855 345.5,65.5C 345.41,62.8478 346.076,60.5145 347.5,58.5 Z"/></g>
<g><path style="opacity:0.004" fill="#1f1f1f" d="M 176.5,61.5 C 176.027,62.9063 175.027,63.573 173.5,63.5C 173.973,62.0937 174.973,61.427 176.5,61.5 Z"/></g>
<g><path style="opacity:0.69" fill="#4f4f4f" d="M 270.5,62.5 C 272.898,62.2594 274.898,62.9261 276.5,64.5C 274.214,64.405 272.214,63.7384 270.5,62.5 Z"/></g>
<g><path style="opacity:0.443" fill="#474747" d="M 126.5,47.5 C 120.167,54.5 113.5,61.1667 106.5,67.5C 106.369,66.7611 106.536,66.0944 107,65.5C 113.09,58.9043 119.59,52.9043 126.5,47.5 Z"/></g>
<g><path style="opacity:0.733" fill="#565656" d="M 277.5,64.5 C 280.495,64.2938 283.162,64.9605 285.5,66.5C 282.572,66.4349 279.905,65.7682 277.5,64.5 Z"/></g>
<g><path style="opacity:0.537" fill="#595959" d="M 293.5,68.5 C 296.152,68.4095 298.485,69.0762 300.5,70.5C 297.848,70.5905 295.515,69.9238 293.5,68.5 Z"/></g>
<g><path style="opacity:0.639" fill="#5c5c5c" d="M 301.5,70.5 C 304.916,70.5275 307.916,71.5275 310.5,73.5C 307.215,73.0719 304.215,72.0719 301.5,70.5 Z"/></g>
<g><path style="opacity:0.4" fill="#636363" d="M 471.5,66.5 C 472.911,69.7959 473.911,73.2959 474.5,77C 473.944,77.3826 473.611,77.8826 473.5,78.5C 472.518,74.6836 471.851,70.6836 471.5,66.5 Z"/></g>
<g><path style="opacity:0.486" fill="#4e4e4e" d="M 106.5,67.5 C 97.8333,76.8333 88.8333,85.8333 79.5,94.5C 87.2412,85.2544 95.5745,76.4211 104.5,68C 105.094,67.5357 105.761,67.369 106.5,67.5 Z"/></g>
<g><path style="opacity:0.545" fill="#5b5b5b" d="M 311.5,73.5 C 314.152,73.4095 316.485,74.0762 318.5,75.5C 315.848,75.5905 313.515,74.9238 311.5,73.5 Z"/></g>
<g><path style="opacity:0.373" fill="#434343" d="M 215.5,76.5 C 210.797,76.4372 206.13,76.7705 201.5,77.5C 204.017,76.027 206.85,75.3603 210,75.5C 212.033,75.5056 213.866,75.8389 215.5,76.5 Z"/></g>
<g><path style="opacity:1" fill="#fdfdfd" d="M 215.5,76.5 C 218.697,76.4054 221.697,77.0721 224.5,78.5C 226.599,79.6118 228.933,80.2785 231.5,80.5C 250.124,84.4055 268.457,89.0722 286.5,94.5C 288.515,95.9238 290.848,96.5905 293.5,96.5C 301.662,98.0407 309.662,100.207 317.5,103C 318.582,104.33 319.249,105.83 319.5,107.5C 319.345,110.716 320.345,113.383 322.5,115.5C 324.06,117.954 325.06,120.62 325.5,123.5C 325.427,125.027 326.094,126.027 327.5,126.5C 328.338,126.842 328.672,127.508 328.5,128.5C 328.427,130.027 329.094,131.027 330.5,131.5C 331.338,131.842 331.672,132.508 331.5,133.5C 331.427,135.027 332.094,136.027 333.5,136.5C 333.738,138.404 334.738,139.738 336.5,140.5C 343.7,147.868 351.367,154.701 359.5,161C 369.72,167.276 380.72,171.609 392.5,174C 393.252,174.671 393.586,175.504 393.5,176.5C 393.41,179.152 394.076,181.485 395.5,183.5C 396.458,185.302 397.125,187.302 397.5,189.5C 397.41,192.152 398.076,194.485 399.5,196.5C 399.528,199.916 400.528,202.916 402.5,205.5C 403.301,207.042 403.634,208.708 403.5,210.5C 403.41,213.152 404.076,215.485 405.5,217.5C 406.434,218.568 406.768,219.901 406.5,221.5C 406.41,224.152 407.076,226.485 408.5,228.5C 409.434,229.568 409.768,230.901 409.5,232.5C 409.41,235.152 410.076,237.485 411.5,239.5C 411.41,242.152 412.076,244.485 413.5,246.5C 414.301,248.042 414.634,249.708 414.5,251.5C 414.723,255.162 415.723,258.495 417.5,261.5C 418.913,264.219 419.58,267.219 419.5,270.5C 419.41,273.152 420.076,275.485 421.5,277.5C 425.183,289.25 423.016,299.917 415,309.5C 412.297,312.371 409.464,315.038 406.5,317.5C 405.167,318.167 404.167,319.167 403.5,320.5C 402.5,320.833 401.833,321.5 401.5,322.5C 400.094,322.973 399.427,323.973 399.5,325.5C 395.526,329.138 391.526,332.805 387.5,336.5C 386.094,336.973 385.427,337.973 385.5,339.5C 369.833,354.5 354.5,369.833 339.5,385.5C 337.973,385.427 336.973,386.094 336.5,387.5C 333.833,390.833 330.833,393.833 327.5,396.5C 326.094,396.973 325.427,397.973 325.5,399.5C 325.5,400.167 325.167,400.5 324.5,400.5C 321.573,401.757 319.239,403.757 317.5,406.5C 310.518,416.407 301.018,422.074 289,423.5C 286.784,423.347 284.617,423.014 282.5,422.5C 279.781,421.087 276.781,420.42 273.5,420.5C 271.162,418.96 268.495,418.294 265.5,418.5C 265.167,418.5 264.833,418.5 264.5,418.5C 260.509,416.394 256.176,415.061 251.5,414.5C 249.379,414.675 247.379,414.341 245.5,413.5C 243.898,411.926 241.898,411.259 239.5,411.5C 236.37,411.3 233.37,410.634 230.5,409.5C 228.898,407.926 226.898,407.259 224.5,407.5C 222.901,407.768 221.568,407.434 220.5,406.5C 218.485,405.076 216.152,404.41 213.5,404.5C 210.37,404.3 207.37,403.634 204.5,402.5C 202.898,400.926 200.898,400.259 198.5,400.5C 191.583,399.604 184.917,397.771 178.5,395C 175.668,388.672 173.335,382.172 171.5,375.5C 171.34,373.847 170.674,372.514 169.5,371.5C 166.924,366.021 163.591,361.021 159.5,356.5C 159.573,354.973 158.906,353.973 157.5,353.5C 153.167,349.833 149.167,345.833 145.5,341.5C 144.738,339.738 143.404,338.738 141.5,338.5C 140.5,338.167 139.833,337.5 139.5,336.5C 139.027,335.094 138.027,334.427 136.5,334.5C 136.027,333.094 135.027,332.427 133.5,332.5C 132.005,332.011 130.671,331.345 129.5,330.5C 129.027,329.094 128.027,328.427 126.5,328.5C 123.759,328.293 121.426,327.293 119.5,325.5C 115.498,323.39 111.165,322.057 106.5,321.5C 106.167,321.5 105.833,321.5 105.5,321.5C 105.068,320.29 104.401,319.29 103.5,318.5C 102.566,317.432 102.232,316.099 102.5,314.5C 102.672,313.508 102.338,312.842 101.5,312.5C 99.8984,308.761 98.8984,304.761 98.5,300.5C 98.7373,299.209 98.404,298.209 97.5,297.5C 96.5655,296.432 96.2322,295.099 96.5,293.5C 96.7373,292.209 96.404,291.209 95.5,290.5C 92.701,281.638 90.3676,272.638 88.5,263.5C 88.6716,262.508 88.3382,261.842 87.5,261.5C 84.8534,251.58 82.52,241.58 80.5,231.5C 80.6716,230.508 80.3382,229.842 79.5,229.5C 77.774,222.759 76.4407,215.926 75.5,209C 75.4886,205.884 76.1553,203.051 77.5,200.5C 78.9063,200.027 79.573,199.027 79.5,197.5C 79.9321,196.29 80.5987,195.29 81.5,194.5C 83.2624,193.738 84.2624,192.404 84.5,190.5C 85.5,190.167 86.1667,189.5 86.5,188.5C 87.9063,188.027 88.573,187.027 88.5,185.5C 90.1667,183.167 92.1667,181.167 94.5,179.5C 95.5,179.167 96.1667,178.5 96.5,177.5C 98.8333,175.833 100.833,173.833 102.5,171.5C 103.5,169.833 104.833,168.5 106.5,167.5C 107.5,167.167 108.167,166.5 108.5,165.5C 108.833,164.5 109.5,163.833 110.5,163.5C 121.167,153.5 131.5,143.167 141.5,132.5C 149.5,125.167 157.167,117.5 164.5,109.5C 165.5,109.167 166.167,108.5 166.5,107.5C 167.5,107.167 168.167,106.5 168.5,105.5C 170.215,103.118 172.215,101.118 174.5,99.5C 175.833,98.8333 176.833,97.8333 177.5,96.5C 178.833,95.8333 179.833,94.8333 180.5,93.5C 184.771,90.8991 188.437,87.5658 191.5,83.5C 191.973,82.0937 192.973,81.427 194.5,81.5C 195.5,81.1667 196.167,80.5 196.5,79.5C 197.78,78.0687 199.447,77.4021 201.5,77.5C 206.13,76.7705 210.797,76.4372 215.5,76.5 Z"/></g>
<g><path style="opacity:0.016" fill="#252525" d="M 326.5,75.5 C 326.38,76.5862 325.713,77.2528 324.5,77.5C 323.584,77.4573 322.917,77.1239 322.5,76.5C 323.959,76.5674 325.292,76.2341 326.5,75.5 Z"/></g>
<g><path style="opacity:0.004" fill="#333333" d="M 224.5,78.5 C 227.228,78.1706 229.562,78.8372 231.5,80.5C 228.933,80.2785 226.599,79.6118 224.5,78.5 Z"/></g>
<g><path style="opacity:0.008" fill="#292929" d="M 158.5,77.5 C 158.5,79.5 157.5,80.5 155.5,80.5C 156.167,79.1667 157.167,78.1667 158.5,77.5 Z"/></g>
<g><path style="opacity:0.157" fill="#2c2c2c" d="M 196.5,79.5 C 196.167,80.5 195.5,81.1667 194.5,81.5C 194.5,80.1667 195.167,79.5 196.5,79.5 Z"/></g>
<g><path style="opacity:0.004" fill="#2f2f2f" d="M 155.5,80.5 C 155.5,81.8333 154.833,82.5 153.5,82.5C 153.833,81.5 154.5,80.8333 155.5,80.5 Z"/></g>
<g><path style="opacity:0.91" fill="#939393" d="M 191.5,83.5 C 188.437,87.5658 184.771,90.8991 180.5,93.5C 183.563,89.4342 187.229,86.1009 191.5,83.5 Z"/></g>
<g><path style="opacity:0.733" fill="#707070" d="M 473.5,89.5 C 473.611,90.1174 473.944,90.6174 474.5,91C 473.891,92.9483 473.224,94.7816 472.5,96.5C 472.198,93.9407 472.532,91.6074 473.5,89.5 Z"/></g>
<g><path style="opacity:0.345" fill="#3f3f3f" d="M 180.5,93.5 C 179.833,94.8333 178.833,95.8333 177.5,96.5C 177.5,94.5 178.5,93.5 180.5,93.5 Z"/></g>
<g><path style="opacity:0.016" fill="#2d2d2d" d="M 286.5,94.5 C 289.152,94.4095 291.485,95.0762 293.5,96.5C 290.848,96.5905 288.515,95.9238 286.5,94.5 Z"/></g>
<g><path style="opacity:0.439" fill="#484848" d="M 79.5,94.5 C 78.1667,96.5 76.5,98.1667 74.5,99.5C 75.1667,96.8333 76.8333,95.1667 79.5,94.5 Z"/></g>
<g><path style="opacity:0.42" fill="#4d4d4d" d="M 177.5,96.5 C 176.833,97.8333 175.833,98.8333 174.5,99.5C 174.5,97.5 175.5,96.5 177.5,96.5 Z"/></g>
<g><path style="opacity:0.298" fill="#3a3a3a" d="M 168.5,105.5 C 168.167,106.5 167.5,107.167 166.5,107.5C 166.5,106.167 167.167,105.5 168.5,105.5 Z"/></g>
<g><path style="opacity:0.306" fill="#3b3b3b" d="M 166.5,107.5 C 166.167,108.5 165.5,109.167 164.5,109.5C 164.5,108.167 165.167,107.5 166.5,107.5 Z"/></g>
<g><path style="opacity:0.804" fill="#636363" d="M 319.5,107.5 C 320.871,109.936 321.871,112.603 322.5,115.5C 320.345,113.383 319.345,110.716 319.5,107.5 Z"/></g>
<g><path style="opacity:0.373" fill="#3c3c3c" d="M 74.5,99.5 C 68.8333,105.833 62.8333,111.833 56.5,117.5C 61.5,110.5 67.5,104.5 74.5,99.5 Z"/></g>
<g><path style="opacity:0.314" fill="#3d3d3d" d="M 55.5,118.5 C 55.1667,119.5 54.5,120.167 53.5,120.5C 53.5,119.167 54.1667,118.5 55.5,118.5 Z"/></g>
<g><path style="opacity:0.698" fill="#6c6c6c" d="M 164.5,109.5 C 157.167,117.5 149.5,125.167 141.5,132.5C 141.369,131.761 141.536,131.094 142,130.5C 149.089,122.906 156.589,115.906 164.5,109.5 Z"/></g>
<g><path style="opacity:0.965" fill="#757575" d="M 353.5,119.5 C 355.446,120.035 356.446,121.368 356.5,123.5C 355.026,122.564 354.026,121.23 353.5,119.5 Z"/></g>
<g><path style="opacity:0.298" fill="#333333" d="M 53.5,120.5 C 52.8333,121.833 51.8333,122.833 50.5,123.5C 50.5,121.5 51.5,120.5 53.5,120.5 Z"/></g>
<g><path style="opacity:0.275" fill="#303030" d="M 50.5,123.5 C 49.8333,124.833 48.8333,125.833 47.5,126.5C 47.5,124.5 48.5,123.5 50.5,123.5 Z"/></g>
<g><path style="opacity:0.314" fill="#525252" d="M 325.5,123.5 C 326.906,123.973 327.573,124.973 327.5,126.5C 326.094,126.027 325.427,125.027 325.5,123.5 Z"/></g>
<g><path style="opacity:0.267" fill="#333333" d="M 47.5,126.5 C 47.1667,127.5 46.5,128.167 45.5,128.5C 45.5,127.167 46.1667,126.5 47.5,126.5 Z"/></g>
<g><path style="opacity:0.29" fill="#484848" d="M 328.5,128.5 C 329.906,128.973 330.573,129.973 330.5,131.5C 329.094,131.027 328.427,130.027 328.5,128.5 Z"/></g>
<g><path style="opacity:0.216" fill="#323232" d="M 42.5,131.5 C 42.1667,132.5 41.5,133.167 40.5,133.5C 40.5,132.167 41.1667,131.5 42.5,131.5 Z"/></g>
<g><path style="opacity:0.831" fill="#777777" d="M 364.5,132.5 C 366.027,132.427 367.027,133.094 367.5,134.5C 365.973,134.573 364.973,133.906 364.5,132.5 Z"/></g>
<g><path style="opacity:0.459" fill="#5d5d5d" d="M 331.5,133.5 C 332.906,133.973 333.573,134.973 333.5,136.5C 332.094,136.027 331.427,135.027 331.5,133.5 Z"/></g>
<g><path style="opacity:0.843" fill="#727272" d="M 333.5,136.5 C 335.262,137.262 336.262,138.596 336.5,140.5C 334.738,139.738 333.738,138.404 333.5,136.5 Z"/></g>
<g><path style="opacity:0.298" fill="#434343" d="M 369.5,136.5 C 371.027,136.427 372.027,137.094 372.5,138.5C 370.973,138.573 369.973,137.906 369.5,136.5 Z"/></g>
<g><path style="opacity:0.004" fill="#2f2f2f" d="M 98.5,137.5 C 98.5,138.833 97.8333,139.5 96.5,139.5C 96.8333,138.5 97.5,137.833 98.5,137.5 Z"/></g>
<g><path style="opacity:0.004" fill="#282828" d="M 96.5,139.5 C 96.5,141.5 95.5,142.5 93.5,142.5C 94.1667,141.167 95.1667,140.167 96.5,139.5 Z"/></g>
<g><path style="opacity:0.004" fill="#282828" d="M 93.5,142.5 C 92.8333,145.167 91.1667,146.833 88.5,147.5C 89.8333,145.5 91.5,143.833 93.5,142.5 Z"/></g>
<g><path style="opacity:0.004" fill="#2e2e2e" d="M 88.5,147.5 C 88.573,149.027 87.9063,150.027 86.5,150.5C 86.427,148.973 87.0937,147.973 88.5,147.5 Z"/></g>
<g><path style="opacity:0.682" fill="#5f5f5f" d="M 141.5,132.5 C 131.5,143.167 121.167,153.5 110.5,163.5C 119.576,152.92 129.242,142.754 139.5,133C 140.094,132.536 140.761,132.369 141.5,132.5 Z"/></g>
<g><path style="opacity:0.749" fill="#7a7a7a" d="M 398.5,148.5 C 405.5,148.5 412.5,148.5 419.5,148.5C 415.3,149.22 410.967,149.886 406.5,150.5C 403.689,149.92 401.023,149.254 398.5,148.5 Z"/></g>
<g><path style="opacity:1" fill="#f9f9f9" d="M 460.5,148.5 C 460.41,151.152 461.076,153.485 462.5,155.5C 463.434,156.568 463.768,157.901 463.5,159.5C 463.41,162.152 464.076,164.485 465.5,166.5C 465.259,168.898 465.926,170.898 467.5,172.5C 468.341,174.379 468.675,176.379 468.5,178.5C 468.723,182.162 469.723,185.495 471.5,188.5C 472.451,189.919 472.784,191.585 472.5,193.5C 472.723,197.162 473.723,200.495 475.5,203.5C 475.5,203.833 475.5,204.167 475.5,204.5C 475.528,207.916 476.528,210.916 478.5,213.5C 479.634,216.37 480.3,219.37 480.5,222.5C 480.41,225.152 481.076,227.485 482.5,229.5C 483.79,232.642 484.79,235.975 485.5,239.5C 485.259,241.898 485.926,243.898 487.5,245.5C 487.5,246.167 487.5,246.833 487.5,247.5C 487.41,250.152 488.076,252.485 489.5,254.5C 491.102,258.239 492.102,262.239 492.5,266.5C 492.565,269.428 493.232,272.095 494.5,274.5C 495.451,275.919 495.784,277.585 495.5,279.5C 495.565,282.428 496.232,285.095 497.5,287.5C 498.167,290.167 498.833,292.833 499.5,295.5C 499.5,300.833 499.5,306.167 499.5,311.5C 498.404,316.952 496.571,322.285 494,327.5C 492.951,329.618 491.451,331.284 489.5,332.5C 488.094,332.973 487.427,333.973 487.5,335.5C 485.833,337.833 483.833,339.833 481.5,341.5C 480.094,341.973 479.427,342.973 479.5,344.5C 472.5,352.167 465.167,359.5 457.5,366.5C 456.167,367.167 455.167,368.167 454.5,369.5C 450.5,374.167 446.167,378.5 441.5,382.5C 440.5,382.833 439.833,383.5 439.5,384.5C 438.167,385.167 437.167,386.167 436.5,387.5C 435.167,388.167 434.167,389.167 433.5,390.5C 432.5,390.833 431.833,391.5 431.5,392.5C 431.5,393.167 431.167,393.5 430.5,393.5C 429.5,393.833 428.833,394.5 428.5,395.5C 428.144,397.19 427.144,398.19 425.5,398.5C 424.167,399.167 423.167,400.167 422.5,401.5C 421.5,401.833 420.833,402.5 420.5,403.5C 419.094,403.973 418.427,404.973 418.5,406.5C 410.386,415.07 402.053,423.403 393.5,431.5C 391.973,431.427 390.973,432.094 390.5,433.5C 389.167,434.167 388.167,435.167 387.5,436.5C 386.5,436.833 385.833,437.5 385.5,438.5C 384.167,439.167 383.167,440.167 382.5,441.5C 381.167,442.167 380.167,443.167 379.5,444.5C 377.833,445.5 376.5,446.833 375.5,448.5C 364.887,459.779 353.887,470.779 342.5,481.5C 340.596,481.738 339.262,482.738 338.5,484.5C 331.367,492.899 322.367,497.899 311.5,499.5C 305.5,499.5 299.5,499.5 293.5,499.5C 292.167,498.833 290.833,498.167 289.5,497.5C 285.761,495.898 281.761,494.898 277.5,494.5C 277.167,494.5 276.833,494.5 276.5,494.5C 274.485,493.076 272.152,492.41 269.5,492.5C 269.167,492.5 268.833,492.5 268.5,492.5C 266.485,491.076 264.152,490.41 261.5,490.5C 261.167,490.5 260.833,490.5 260.5,490.5C 258.485,489.076 256.152,488.41 253.5,488.5C 251.708,488.634 250.042,488.301 248.5,487.5C 245.495,485.723 242.162,484.723 238.5,484.5C 236.901,484.768 235.568,484.434 234.5,483.5C 232.485,482.076 230.152,481.41 227.5,481.5C 222.88,481.26 218.547,480.26 214.5,478.5C 212.485,477.076 210.152,476.41 207.5,476.5C 205.901,476.768 204.568,476.434 203.5,475.5C 201.485,474.076 199.152,473.41 196.5,473.5C 194.585,473.784 192.919,473.451 191.5,472.5C 189.485,471.076 187.152,470.41 184.5,470.5C 182.485,469.076 180.152,468.41 177.5,468.5C 176.833,468.5 176.167,468.5 175.5,468.5C 173.898,466.926 171.898,466.259 169.5,466.5C 169.167,466.5 168.833,466.5 168.5,466.5C 164.217,464.188 159.55,462.855 154.5,462.5C 154.052,457.004 155.718,452.004 159.5,447.5C 160.906,447.027 161.573,446.027 161.5,444.5C 164.241,437.012 166.408,429.345 168,421.5C 168.725,420.941 169.558,420.608 170.5,420.5C 187.661,425.037 204.661,429.704 221.5,434.5C 223.515,435.924 225.848,436.59 228.5,436.5C 247.806,441.382 267.14,446.049 286.5,450.5C 291.316,451.65 296.316,451.816 301.5,451C 302.416,450.722 303.082,450.222 303.5,449.5C 303.833,449.5 304.167,449.5 304.5,449.5C 306.698,449.88 308.365,449.213 309.5,447.5C 309.833,447.5 310.167,447.5 310.5,447.5C 312.027,447.573 313.027,446.906 313.5,445.5C 315.027,445.573 316.027,444.906 316.5,443.5C 318.749,442.92 320.415,441.587 321.5,439.5C 321.5,438.167 322.167,437.5 323.5,437.5C 328.833,434.167 333.167,429.833 336.5,424.5C 346.413,416.091 355.913,407.091 365,397.5C 365.464,396.906 365.631,396.239 365.5,395.5C 367.404,395.262 368.738,394.262 369.5,392.5C 370.833,391.833 371.833,390.833 372.5,389.5C 373.5,389.167 374.167,388.5 374.5,387.5C 380.694,380.395 387.36,373.728 394.5,367.5C 396.167,366.5 397.5,365.167 398.5,363.5C 402.167,361.833 404.833,359.167 406.5,355.5C 409.5,351.833 412.833,348.5 416.5,345.5C 419.903,343.1 422.57,340.1 424.5,336.5C 427.167,335.833 428.833,334.167 429.5,331.5C 431.167,329.167 433.167,327.167 435.5,325.5C 437.914,324.089 439.581,322.089 440.5,319.5C 440.833,318.5 441.5,317.833 442.5,317.5C 443.906,317.027 444.573,316.027 444.5,314.5C 445.906,314.027 446.573,313.027 446.5,311.5C 446.328,310.508 446.662,309.842 447.5,309.5C 449.834,307.824 450.834,305.491 450.5,302.5C 450.775,294.447 450.275,286.447 449,278.5C 444.053,259.165 439.219,239.832 434.5,220.5C 434.59,217.848 433.924,215.515 432.5,213.5C 428.173,198.196 423.84,182.862 419.5,167.5C 419.863,166.817 420.196,166.15 420.5,165.5C 422.027,165.573 423.027,164.906 423.5,163.5C 424.167,163.5 424.833,163.5 425.5,163.5C 429.708,163.323 433.374,161.99 436.5,159.5C 441.311,156.93 446.311,154.597 451.5,152.5C 453.027,152.573 454.027,151.906 454.5,150.5C 455.627,149.878 456.627,149.045 457.5,148C 458.749,147.26 459.749,147.427 460.5,148.5 Z"/></g>
<g><path style="opacity:0.51" fill="#424242" d="M 454.5,150.5 C 454.027,151.906 453.027,152.573 451.5,152.5C 451.973,151.094 452.973,150.427 454.5,150.5 Z"/></g>
<g><path style="opacity:0.757" fill="#616161" d="M 460.5,148.5 C 461.924,150.515 462.59,152.848 462.5,155.5C 461.076,153.485 460.41,151.152 460.5,148.5 Z"/></g>
<g><path style="opacity:0.353" fill="#3f3f3f" d="M 24.5,149.5 C 21.8991,153.771 18.5658,157.437 14.5,160.5C 17.1009,156.229 20.4342,152.563 24.5,149.5 Z"/></g>
<g><path style="opacity:0.667" fill="#656565" d="M 436.5,159.5 C 433.374,161.99 429.708,163.323 425.5,163.5C 428.939,161.796 432.605,160.462 436.5,159.5 Z"/></g>
<g><path style="opacity:0.714" fill="#5a5a5a" d="M 463.5,159.5 C 464.924,161.515 465.59,163.848 465.5,166.5C 464.076,164.485 463.41,162.152 463.5,159.5 Z"/></g>
<g><path style="opacity:0.545" fill="#3f3f3f" d="M 423.5,163.5 C 423.027,164.906 422.027,165.573 420.5,165.5C 420.973,164.094 421.973,163.427 423.5,163.5 Z"/></g>
<g><path style="opacity:0.204" fill="#3d3d3d" d="M 12.5,162.5 C 11.9202,164.749 10.5869,166.415 8.5,167.5C 9.07978,165.251 10.4131,163.585 12.5,162.5 Z"/></g>
<g><path style="opacity:0.271" fill="#363636" d="M 108.5,165.5 C 108.167,166.5 107.5,167.167 106.5,167.5C 106.5,166.167 107.167,165.5 108.5,165.5 Z"/></g>
<g><path style="opacity:0.42" fill="#464646" d="M 8.5,167.5 C 8.26242,169.404 7.26242,170.738 5.5,171.5C 5.73758,169.596 6.73758,168.262 8.5,167.5 Z"/></g>
<g><path style="opacity:0.655" fill="#484848" d="M 465.5,166.5 C 466.738,168.214 467.405,170.214 467.5,172.5C 465.926,170.898 465.259,168.898 465.5,166.5 Z"/></g>
<g><path style="opacity:0.353" fill="#3b3b3b" d="M 102.5,171.5 C 100.833,173.833 98.8333,175.833 96.5,177.5C 97.5,174.5 99.5,172.5 102.5,171.5 Z"/></g>
<g><path style="opacity:0.004" fill="#212121" d="M 62.5,174.5 C 62.2624,176.404 61.2624,177.738 59.5,178.5C 59.7376,176.596 60.7376,175.262 62.5,174.5 Z"/></g>
<g><path style="opacity:0.89" fill="#6e6e6e" d="M 3.5,175.5 C 3.87988,177.698 3.21321,179.365 1.5,180.5C 1.79586,178.597 2.46253,176.93 3.5,175.5 Z"/></g>
<g><path style="opacity:0.251" fill="#353535" d="M 96.5,177.5 C 96.1667,178.5 95.5,179.167 94.5,179.5C 94.5,178.167 95.1667,177.5 96.5,177.5 Z"/></g>
<g><path style="opacity:0.71" fill="#575757" d="M 393.5,176.5 C 394.924,178.515 395.59,180.848 395.5,183.5C 394.076,181.485 393.41,179.152 393.5,176.5 Z"/></g>
<g><path style="opacity:0.922" fill="#7a7a7a" d="M 468.5,178.5 C 470.277,181.505 471.277,184.838 471.5,188.5C 469.723,185.495 468.723,182.162 468.5,178.5 Z"/></g>
<g><path style="opacity:0.627" fill="#575757" d="M 88.5,185.5 C 88.573,187.027 87.9063,188.027 86.5,188.5C 86.427,186.973 87.0937,185.973 88.5,185.5 Z"/></g>
<g><path style="opacity:0.251" fill="#383838" d="M 86.5,188.5 C 86.1667,189.5 85.5,190.167 84.5,190.5C 84.5,189.167 85.1667,188.5 86.5,188.5 Z"/></g>
<g><path style="opacity:0.643" fill="#4c4c4c" d="M 84.5,190.5 C 84.2624,192.404 83.2624,193.738 81.5,194.5C 81.7376,192.596 82.7376,191.262 84.5,190.5 Z"/></g>
<g><path style="opacity:0.824" fill="#747474" d="M 397.5,189.5 C 398.924,191.515 399.59,193.848 399.5,196.5C 398.076,194.485 397.41,192.152 397.5,189.5 Z"/></g>
<g><path style="opacity:0.929" fill="#7b7b7b" d="M 472.5,193.5 C 474.277,196.505 475.277,199.838 475.5,203.5C 473.723,200.495 472.723,197.162 472.5,193.5 Z"/></g>
<g><path style="opacity:0.137" fill="#323232" d="M 79.5,197.5 C 79.573,199.027 78.9063,200.027 77.5,200.5C 77.427,198.973 78.0937,197.973 79.5,197.5 Z"/></g>
<g><path style="opacity:0.843" fill="#626262" d="M 399.5,196.5 C 401.072,199.215 402.072,202.215 402.5,205.5C 400.528,202.916 399.528,199.916 399.5,196.5 Z"/></g>
<g><path style="opacity:0.231" fill="#3e3e3e" d="M 49.5,194.5 C 48.2763,201.824 48.2763,209.158 49.5,216.5C 48.0156,212.946 47.3489,209.112 47.5,205C 47.3037,201.195 47.9704,197.695 49.5,194.5 Z"/></g>
<g><path style="opacity:0.918" fill="#6f6f6f" d="M 475.5,204.5 C 477.072,207.215 478.072,210.215 478.5,213.5C 476.528,210.916 475.528,207.916 475.5,204.5 Z"/></g>
<g><path style="opacity:0.827" fill="#727272" d="M 403.5,210.5 C 404.924,212.515 405.59,214.848 405.5,217.5C 404.076,215.485 403.41,213.152 403.5,210.5 Z"/></g>
<g><path style="opacity:0.012" fill="#2d2d2d" d="M 432.5,213.5 C 433.924,215.515 434.59,217.848 434.5,220.5C 433.076,218.485 432.41,216.152 432.5,213.5 Z"/></g>
<g><path style="opacity:0.012" fill="#101010" d="M 3.5,222.5 C 4.33825,222.842 4.67158,223.508 4.5,224.5C 2.57591,224.289 2.24258,223.623 3.5,222.5 Z"/></g>
<g><path style="opacity:0.824" fill="#707070" d="M 406.5,221.5 C 407.924,223.515 408.59,225.848 408.5,228.5C 407.076,226.485 406.41,224.152 406.5,221.5 Z"/></g>
<g><path style="opacity:0.733" fill="#5b5b5b" d="M 480.5,222.5 C 481.924,224.515 482.59,226.848 482.5,229.5C 481.076,227.485 480.41,225.152 480.5,222.5 Z"/></g>
<g><path style="opacity:0.008" fill="#0d0d0d" d="M 79.5,229.5 C 80.3382,229.842 80.6716,230.508 80.5,231.5C 78.5759,231.289 78.2426,230.623 79.5,229.5 Z"/></g>
<g><path style="opacity:0.855" fill="#787878" d="M 409.5,232.5 C 410.924,234.515 411.59,236.848 411.5,239.5C 410.076,237.485 409.41,235.152 409.5,232.5 Z"/></g>
<g><path style="opacity:0.565" fill="#636363" d="M 53.5,236.5 C 54.9238,238.515 55.5905,240.848 55.5,243.5C 54.0762,241.485 53.4095,239.152 53.5,236.5 Z"/></g>
<g><path style="opacity:0.663" fill="#4a4a4a" d="M 485.5,239.5 C 486.738,241.214 487.405,243.214 487.5,245.5C 485.926,243.898 485.259,241.898 485.5,239.5 Z"/></g>
<g><path style="opacity:0.596" fill="#636363" d="M 411.5,239.5 C 412.924,241.515 413.59,243.848 413.5,246.5C 412.076,244.485 411.41,242.152 411.5,239.5 Z"/></g>
<g><path style="opacity:0.561" fill="#6c6c6c" d="M 55.5,244.5 C 56.9238,246.515 57.5905,248.848 57.5,251.5C 56.0762,249.485 55.4095,247.152 55.5,244.5 Z"/></g>
<g><path style="opacity:0.514" fill="#575757" d="M 487.5,247.5 C 488.924,249.515 489.59,251.848 489.5,254.5C 488.076,252.485 487.41,250.152 487.5,247.5 Z"/></g>
<g><path style="opacity:0.918" fill="#787878" d="M 414.5,251.5 C 416.277,254.505 417.277,257.838 417.5,261.5C 415.723,258.495 414.723,255.162 414.5,251.5 Z"/></g>
<g><path style="opacity:0.004" fill="#0f0f0f" d="M 87.5,261.5 C 88.3382,261.842 88.6716,262.508 88.5,263.5C 86.3023,263.591 85.9689,262.925 87.5,261.5 Z"/></g>
<g><path style="opacity:0.553" fill="#5d5d5d" d="M 59.5,259.5 C 60.9238,261.515 61.5905,263.848 61.5,266.5C 60.0762,264.485 59.4095,262.152 59.5,259.5 Z"/></g>
<g><path style="opacity:0.702" fill="#5e5e5e" d="M 492.5,266.5 C 494.04,268.838 494.706,271.505 494.5,274.5C 493.232,272.095 492.565,269.428 492.5,266.5 Z"/></g>
<g><path style="opacity:0.22" fill="#313131" d="M 17.5,273.5 C 18.404,274.209 18.7373,275.209 18.5,276.5C 16.5188,275.895 16.1854,274.895 17.5,273.5 Z"/></g>
<g><path style="opacity:0.667" fill="#7d7d7d" d="M 419.5,270.5 C 420.924,272.515 421.59,274.848 421.5,277.5C 420.076,275.485 419.41,273.152 419.5,270.5 Z"/></g>
<g><path style="opacity:0.761" fill="#595959" d="M 63.5,274.5 C 65.2576,277.854 66.2576,281.521 66.5,285.5C 64.7424,282.146 63.7424,278.479 63.5,274.5 Z"/></g>
<g><path style="opacity:0.137" fill="#242424" d="M 19.5,281.5 C 20.404,282.209 20.7373,283.209 20.5,284.5C 20.1667,284.5 19.8333,284.5 19.5,284.5C 18.1667,283.5 18.1667,282.5 19.5,281.5 Z"/></g>
<g><path style="opacity:0.749" fill="#646464" d="M 495.5,279.5 C 497.04,281.838 497.706,284.505 497.5,287.5C 496.232,285.095 495.565,282.428 495.5,279.5 Z"/></g>
<g><path style="opacity:0.004" fill="#000000" d="M 19.5,284.5 C 18.8333,285.167 18.8333,285.167 19.5,284.5 Z"/></g>
<g><path style="opacity:0.239" fill="#353535" d="M 95.5,290.5 C 96.404,291.209 96.7373,292.209 96.5,293.5C 94.2043,293.196 93.871,292.196 95.5,290.5 Z"/></g>
<g><path style="opacity:0.71" fill="#636363" d="M 66.5,286.5 C 68.0719,289.215 69.0719,292.215 69.5,295.5C 67.5275,292.916 66.5275,289.916 66.5,286.5 Z"/></g>
<g><path style="opacity:0.004" fill="#252525" d="M 97.5,297.5 C 98.404,298.209 98.7373,299.209 98.5,300.5C 97.6365,301.463 96.9698,301.463 96.5,300.5C 97.1272,299.583 97.4606,298.583 97.5,297.5 Z"/></g>
<g><path style="opacity:0.173" fill="#2a2a2a" d="M 25.5,303.5 C 26.404,304.209 26.7373,305.209 26.5,306.5C 24.5188,305.895 24.1854,304.895 25.5,303.5 Z"/></g>
<g><path style="opacity:0.737" fill="#666666" d="M 450.5,302.5 C 450.834,305.491 449.834,307.824 447.5,309.5C 447.935,306.843 448.935,304.509 450.5,302.5 Z"/></g>
<g><path style="opacity:0.929" fill="#6f6f6f" d="M 72.5,308.5 C 74.2766,311.505 75.2766,314.838 75.5,318.5C 73.7234,315.495 72.7234,312.162 72.5,308.5 Z"/></g>
<g><path style="opacity:0.004" fill="#242424" d="M 27.5,310.5 C 28.4345,311.568 28.7678,312.901 28.5,314.5C 27.6365,315.463 26.9698,315.463 26.5,314.5C 27.2458,313.264 27.5792,311.93 27.5,310.5 Z"/></g>
<g><path style="opacity:0.11" fill="#2d2d2d" d="M 101.5,312.5 C 102.338,312.842 102.672,313.508 102.5,314.5C 100.302,314.591 99.9689,313.925 101.5,312.5 Z"/></g>
<g><path style="opacity:0.22" fill="#373737" d="M 446.5,311.5 C 446.573,313.027 445.906,314.027 444.5,314.5C 444.427,312.973 445.094,311.973 446.5,311.5 Z"/></g>
<g><path style="opacity:0.435" fill="#565656" d="M 444.5,314.5 C 444.573,316.027 443.906,317.027 442.5,317.5C 442.427,315.973 443.094,314.973 444.5,314.5 Z"/></g>
<g><path style="opacity:0.455" fill="#747474" d="M 103.5,318.5 C 104.401,319.29 105.068,320.29 105.5,321.5C 103.952,321.179 103.285,320.179 103.5,318.5 Z"/></g>
<g><path style="opacity:0.004" fill="#262626" d="M 406.5,317.5 C 406.5,319.5 405.5,320.5 403.5,320.5C 404.167,319.167 405.167,318.167 406.5,317.5 Z"/></g>
<g><path style="opacity:0.949" fill="#797979" d="M 106.5,321.5 C 111.165,322.057 115.498,323.39 119.5,325.5C 114.835,324.943 110.502,323.61 106.5,321.5 Z"/></g>
<g><path style="opacity:0.004" fill="#343434" d="M 403.5,320.5 C 403.5,321.833 402.833,322.5 401.5,322.5C 401.833,321.5 402.5,320.833 403.5,320.5 Z"/></g>
<g><path style="opacity:0.451" fill="#464646" d="M 440.5,319.5 C 439.581,322.089 437.914,324.089 435.5,325.5C 436.419,322.911 438.086,320.911 440.5,319.5 Z"/></g>
<g><path style="opacity:0.004" fill="#2e2e2e" d="M 401.5,322.5 C 401.573,324.027 400.906,325.027 399.5,325.5C 399.427,323.973 400.094,322.973 401.5,322.5 Z"/></g>
<g><path style="opacity:0.239" fill="#494949" d="M 126.5,328.5 C 128.027,328.427 129.027,329.094 129.5,330.5C 127.973,330.573 126.973,329.906 126.5,328.5 Z"/></g>
<g><path style="opacity:0.224" fill="#3a3a3a" d="M 133.5,332.5 C 135.027,332.427 136.027,333.094 136.5,334.5C 134.973,334.573 133.973,333.906 133.5,332.5 Z"/></g>
<g><path style="opacity:0.008" fill="#2e2e2e" d="M 489.5,332.5 C 489.573,334.027 488.906,335.027 487.5,335.5C 487.427,333.973 488.094,332.973 489.5,332.5 Z"/></g>
<g><path style="opacity:0.004" fill="#232323" d="M 33.5,332.5 C 34.4345,333.568 34.7678,334.901 34.5,336.5C 33.6236,336.631 32.9569,336.298 32.5,335.5C 33.1272,334.583 33.4606,333.583 33.5,332.5 Z"/></g>
<g><path style="opacity:0.573" fill="#5b5b5b" d="M 429.5,331.5 C 428.833,334.167 427.167,335.833 424.5,336.5C 425.833,334.5 427.5,332.833 429.5,331.5 Z"/></g>
<g><path style="opacity:0.302" fill="#434343" d="M 136.5,334.5 C 138.027,334.427 139.027,335.094 139.5,336.5C 137.973,336.573 136.973,335.906 136.5,334.5 Z"/></g>
<g><path style="opacity:0.004" fill="#282828" d="M 387.5,336.5 C 387.573,338.027 386.906,339.027 385.5,339.5C 385.427,337.973 386.094,336.973 387.5,336.5 Z"/></g>
<g><path style="opacity:0.686" fill="#565656" d="M 141.5,338.5 C 143.404,338.738 144.738,339.738 145.5,341.5C 143.596,341.262 142.262,340.262 141.5,338.5 Z"/></g>
<g><path style="opacity:0.243" fill="#383838" d="M 35.5,340.5 C 36.404,341.209 36.7373,342.209 36.5,343.5C 34.2043,343.196 33.871,342.196 35.5,340.5 Z"/></g>
<g><path style="opacity:0.376" fill="#414141" d="M 424.5,336.5 C 422.57,340.1 419.903,343.1 416.5,345.5C 418.43,341.9 421.097,338.9 424.5,336.5 Z"/></g>
<g><path style="opacity:0.008" fill="#292929" d="M 481.5,341.5 C 481.573,343.027 480.906,344.027 479.5,344.5C 479.427,342.973 480.094,341.973 481.5,341.5 Z"/></g>
<g><path style="opacity:0.427" fill="#4c4c4c" d="M 36.5,343.5 C 37.2223,344.551 38.2223,345.218 39.5,345.5C 38.791,346.404 37.791,346.737 36.5,346.5C 36.5,345.5 36.5,344.5 36.5,343.5 Z"/></g>
<g><path style="opacity:0.671" fill="#7e7e7e" d="M 99.5,347.5 C 90.8333,347.5 82.1667,347.5 73.5,347.5C 75.8927,346.79 78.3927,346.123 81,345.5C 87.1056,345.883 93.2723,346.549 99.5,347.5 Z"/></g>
<g><path style="opacity:1" fill="#fbfbfb" d="M 72.5,347.5 C 72.8333,347.5 73.1667,347.5 73.5,347.5C 82.1667,347.5 90.8333,347.5 99.5,347.5C 108.003,348.593 115.669,351.593 122.5,356.5C 123.035,358.446 124.368,359.446 126.5,359.5C 126.973,360.906 127.973,361.573 129.5,361.5C 131.833,363.167 133.833,365.167 135.5,367.5C 135.738,369.404 136.738,370.738 138.5,371.5C 138.738,373.404 139.738,374.738 141.5,375.5C 141.427,377.027 142.094,378.027 143.5,378.5C 144.338,378.842 144.672,379.508 144.5,380.5C 144.427,382.027 145.094,383.027 146.5,383.5C 147.537,384.93 148.204,386.597 148.5,388.5C 148.41,391.152 149.076,393.485 150.5,395.5C 151.451,396.919 151.784,398.585 151.5,400.5C 151.205,402.735 151.539,404.735 152.5,406.5C 153.477,411.421 153.477,416.087 152.5,420.5C 151.232,422.905 150.565,425.572 150.5,428.5C 147.147,441.545 140.48,452.545 130.5,461.5C 128.973,461.427 127.973,462.094 127.5,463.5C 121.539,468.982 114.539,472.649 106.5,474.5C 103.572,474.565 100.905,475.232 98.5,476.5C 91.1667,477.833 83.8333,477.833 76.5,476.5C 73.7814,475.087 70.7814,474.42 67.5,474.5C 66.3646,472.787 64.698,472.12 62.5,472.5C 59.5152,471.674 56.8485,470.341 54.5,468.5C 54.0269,467.094 53.0269,466.427 51.5,466.5C 51.0269,465.094 50.0269,464.427 48.5,464.5C 47.7377,462.738 46.4044,461.738 44.5,461.5C 43.4154,459.413 41.7488,458.08 39.5,457.5C 38.9744,455.77 37.9744,454.436 36.5,453.5C 35.8333,453.5 35.5,453.167 35.5,452.5C 35.573,450.973 34.9063,449.973 33.5,449.5C 33.4456,447.368 32.4456,446.035 30.5,445.5C 29.6554,444.329 28.9887,442.995 28.5,441.5C 28.6716,440.508 28.3382,439.842 27.5,439.5C 26.596,438.791 26.2627,437.791 26.5,436.5C 26.6716,435.508 26.3382,434.842 25.5,434.5C 25.2785,431.933 24.6118,429.599 23.5,427.5C 21.4052,419.226 21.0719,410.893 22.5,402.5C 23.3414,400.621 23.6747,398.621 23.5,396.5C 24.9238,394.485 25.5905,392.152 25.5,389.5C 25.5569,388.391 25.8902,387.391 26.5,386.5C 28.7505,383.001 30.7505,379.335 32.5,375.5C 33.4013,374.71 34.0679,373.71 34.5,372.5C 36.914,371.089 38.5806,369.089 39.5,366.5C 40.8333,365.833 41.8333,364.833 42.5,363.5C 43.2623,361.738 44.5956,360.738 46.5,360.5C 47.5,360.167 48.1667,359.5 48.5,358.5C 50.0269,358.573 51.0269,357.906 51.5,356.5C 55.5694,353.132 60.2361,350.799 65.5,349.5C 68.1522,349.59 70.4855,348.924 72.5,347.5 Z"/></g>
<g><path style="opacity:0.765" fill="#676767" d="M 72.5,347.5 C 70.4855,348.924 68.1522,349.59 65.5,349.5C 67.5145,348.076 69.8478,347.41 72.5,347.5 Z"/></g>
<g><path style="opacity:0.004" fill="#242424" d="M 157.5,353.5 C 158.906,353.973 159.573,354.973 159.5,356.5C 158.094,356.027 157.427,355.027 157.5,353.5 Z"/></g>
<g><path style="opacity:0.631" fill="#5a5a5a" d="M 51.5,356.5 C 51.0269,357.906 50.0269,358.573 48.5,358.5C 48.9731,357.094 49.9731,356.427 51.5,356.5 Z"/></g>
<g><path style="opacity:0.945" fill="#6f6f6f" d="M 122.5,356.5 C 124.23,357.026 125.564,358.026 126.5,359.5C 124.368,359.446 123.035,358.446 122.5,356.5 Z"/></g>
<g><path style="opacity:0.18" fill="#2d2d2d" d="M 48.5,358.5 C 48.1667,359.5 47.5,360.167 46.5,360.5C 46.5,359.167 47.1667,358.5 48.5,358.5 Z"/></g>
<g><path style="opacity:0.004" fill="#212121" d="M 126.5,359.5 C 128.027,359.427 129.027,360.094 129.5,361.5C 127.973,361.573 126.973,360.906 126.5,359.5 Z"/></g>
<g><path style="opacity:0.953" fill="#b3b3b3" d="M 406.5,355.5 C 404.833,359.167 402.167,361.833 398.5,363.5C 400.833,360.5 403.5,357.833 406.5,355.5 Z"/></g>
<g><path style="opacity:0.396" fill="#484848" d="M 398.5,363.5 C 397.5,365.167 396.167,366.5 394.5,367.5C 394.833,365.167 396.167,363.833 398.5,363.5 Z"/></g>
<g><path style="opacity:0.255" fill="#303030" d="M 42.5,363.5 C 41.8333,364.833 40.8333,365.833 39.5,366.5C 39.5,364.5 40.5,363.5 42.5,363.5 Z"/></g>
<g><path style="opacity:0.686" fill="#515151" d="M 135.5,367.5 C 137.262,368.262 138.262,369.596 138.5,371.5C 136.738,370.738 135.738,369.404 135.5,367.5 Z"/></g>
<g><path style="opacity:0.004" fill="#292929" d="M 457.5,366.5 C 457.5,368.5 456.5,369.5 454.5,369.5C 455.167,368.167 456.167,367.167 457.5,366.5 Z"/></g>
<g><path style="opacity:0.125" fill="#383838" d="M 39.5,366.5 C 38.5806,369.089 36.914,371.089 34.5,372.5C 35.4194,369.911 37.086,367.911 39.5,366.5 Z"/></g>
<g><path style="opacity:0.012" fill="#101010" d="M 34.5,372.5 C 34.0679,373.71 33.4013,374.71 32.5,375.5C 32.2852,373.821 32.9519,372.821 34.5,372.5 Z"/></g>
<g><path style="opacity:0.878" fill="#757575" d="M 138.5,371.5 C 140.262,372.262 141.262,373.596 141.5,375.5C 139.738,374.738 138.738,373.404 138.5,371.5 Z"/></g>
<g><path style="opacity:0.008" fill="#242424" d="M 169.5,371.5 C 170.674,372.514 171.34,373.847 171.5,375.5C 169.896,374.713 169.229,373.38 169.5,371.5 Z"/></g>
<g><path style="opacity:0.38" fill="#565656" d="M 141.5,375.5 C 142.906,375.973 143.573,376.973 143.5,378.5C 142.094,378.027 141.427,377.027 141.5,375.5 Z"/></g>
<g><path style="opacity:0.008" fill="#1b1b1b" d="M 32.5,375.5 C 30.7505,379.335 28.7505,383.001 26.5,386.5C 27.1917,382.116 29.1917,378.45 32.5,375.5 Z"/></g>
<g><path style="opacity:0.176" fill="#3b3b3b" d="M 144.5,380.5 C 145.906,380.973 146.573,381.973 146.5,383.5C 145.094,383.027 144.427,382.027 144.5,380.5 Z"/></g>
<g><path style="opacity:0.004" fill="#2e2e2e" d="M 441.5,382.5 C 441.5,383.833 440.833,384.5 439.5,384.5C 439.833,383.5 440.5,382.833 441.5,382.5 Z"/></g>
<g><path style="opacity:0.004" fill="#212121" d="M 339.5,385.5 C 339.027,386.906 338.027,387.573 336.5,387.5C 336.973,386.094 337.973,385.427 339.5,385.5 Z"/></g>
<g><path style="opacity:0.004" fill="#282828" d="M 439.5,384.5 C 439.5,386.5 438.5,387.5 436.5,387.5C 437.167,386.167 438.167,385.167 439.5,384.5 Z"/></g>
<g><path style="opacity:0.318" fill="#3d3d3d" d="M 374.5,387.5 C 374.167,388.5 373.5,389.167 372.5,389.5C 372.5,388.167 373.167,387.5 374.5,387.5 Z"/></g>
<g><path style="opacity:0.008" fill="#292929" d="M 436.5,387.5 C 436.5,389.5 435.5,390.5 433.5,390.5C 434.167,389.167 435.167,388.167 436.5,387.5 Z"/></g>
<g><path style="opacity:0.898" fill="#7d7d7d" d="M 148.5,388.5 C 149.924,390.515 150.59,392.848 150.5,395.5C 149.076,393.485 148.41,391.152 148.5,388.5 Z"/></g>
<g><path style="opacity:0.325" fill="#3c3c3c" d="M 372.5,389.5 C 371.833,390.833 370.833,391.833 369.5,392.5C 369.5,390.5 370.5,389.5 372.5,389.5 Z"/></g>
<g><path style="opacity:0.004" fill="#333333" d="M 433.5,390.5 C 433.5,391.833 432.833,392.5 431.5,392.5C 431.833,391.5 432.5,390.833 433.5,390.5 Z"/></g>
<g><path style="opacity:0.753" fill="#5b5b5b" d="M 25.5,389.5 C 25.5905,392.152 24.9238,394.485 23.5,396.5C 23.4095,393.848 24.0762,391.515 25.5,389.5 Z"/></g>
<g><path style="opacity:0.337" fill="#3b3b3b" d="M 369.5,392.5 C 368.738,394.262 367.404,395.262 365.5,395.5C 366.262,393.738 367.596,392.738 369.5,392.5 Z"/></g>
<g><path style="opacity:0.008" fill="#353535" d="M 430.5,393.5 C 430.5,394.833 429.833,395.5 428.5,395.5C 428.833,394.5 429.5,393.833 430.5,393.5 Z"/></g>
<g><path style="opacity:0.004" fill="#2e2e2e" d="M 327.5,396.5 C 327.573,398.027 326.906,399.027 325.5,399.5C 325.427,397.973 326.094,396.973 327.5,396.5 Z"/></g>
<g><path style="opacity:0.541" fill="#3d3d3d" d="M 23.5,396.5 C 23.6747,398.621 23.3414,400.621 22.5,402.5C 21.9569,402.44 21.6236,402.107 21.5,401.5C 22.0276,399.664 22.6942,397.997 23.5,396.5 Z"/></g>
<g><path style="opacity:0.757" fill="#5b5b5b" d="M 198.5,400.5 C 200.898,400.259 202.898,400.926 204.5,402.5C 202.214,402.405 200.214,401.738 198.5,400.5 Z"/></g>
<g><path style="opacity:0.004" fill="#2d2d2d" d="M 425.5,398.5 C 425.5,400.5 424.5,401.5 422.5,401.5C 423.167,400.167 424.167,399.167 425.5,398.5 Z"/></g>
<g><path style="opacity:0.004" fill="#393939" d="M 422.5,401.5 C 422.5,402.833 421.833,403.5 420.5,403.5C 420.833,402.5 421.5,401.833 422.5,401.5 Z"/></g>
<g><path style="opacity:0.565" fill="#717171" d="M 151.5,400.5 C 152.828,402.444 153.161,404.444 152.5,406.5C 151.539,404.735 151.205,402.735 151.5,400.5 Z"/></g>
<g><path style="opacity:0.004" fill="#252525" d="M 324.5,400.5 C 322.761,403.243 320.427,405.243 317.5,406.5C 319.239,403.757 321.573,401.757 324.5,400.5 Z"/></g>
<g><path style="opacity:0.004" fill="#2f2f2f" d="M 420.5,403.5 C 420.573,405.027 419.906,406.027 418.5,406.5C 418.427,404.973 419.094,403.973 420.5,403.5 Z"/></g>
<g><path style="opacity:0.58" fill="#666666" d="M 213.5,404.5 C 216.152,404.41 218.485,405.076 220.5,406.5C 217.848,406.59 215.515,405.924 213.5,404.5 Z"/></g>
<g><path style="opacity:0.686" fill="#4e4e4e" d="M 224.5,407.5 C 226.898,407.259 228.898,407.926 230.5,409.5C 228.214,409.405 226.214,408.738 224.5,407.5 Z"/></g>
<g><path style="opacity:0.718" fill="#545454" d="M 239.5,411.5 C 241.898,411.259 243.898,411.926 245.5,413.5C 243.214,413.405 241.214,412.738 239.5,411.5 Z"/></g>
<g><path style="opacity:0.443" fill="#4c4c4c" d="M 365.5,395.5 C 365.631,396.239 365.464,396.906 365,397.5C 355.913,407.091 346.413,416.091 336.5,424.5C 345.833,414.5 355.5,404.833 365.5,395.5 Z"/></g>
<g><path style="opacity:0.647" fill="#555555" d="M 251.5,414.5 C 256.176,415.061 260.509,416.394 264.5,418.5C 259.835,417.922 255.501,416.589 251.5,414.5 Z"/></g>
<g><path style="opacity:0.506" fill="#545454" d="M 265.5,418.5 C 268.495,418.294 271.162,418.96 273.5,420.5C 270.572,420.435 267.905,419.768 265.5,418.5 Z"/></g>
<g><path style="opacity:0.69" fill="#4e4e4e" d="M 273.5,420.5 C 276.781,420.42 279.781,421.087 282.5,422.5C 279.219,422.58 276.219,421.913 273.5,420.5 Z"/></g>
<g><path style="opacity:0.588" fill="#595959" d="M 152.5,420.5 C 152.706,423.495 152.04,426.162 150.5,428.5C 150.565,425.572 151.232,422.905 152.5,420.5 Z"/></g>
<g><path style="opacity:0.013" fill="#1d1d1d" d="M 23.5,427.5 C 24.6118,429.599 25.2785,431.933 25.5,434.5C 23.8372,432.562 23.1706,430.228 23.5,427.5 Z"/></g>
<g><path style="opacity:0.831" fill="#8c8c8c" d="M 336.5,424.5 C 333.167,429.833 328.833,434.167 323.5,437.5C 327.5,432.833 331.833,428.5 336.5,424.5 Z"/></g>
<g><path style="opacity:0.004" fill="#282828" d="M 393.5,431.5 C 393.027,432.906 392.027,433.573 390.5,433.5C 390.973,432.094 391.973,431.427 393.5,431.5 Z"/></g>
<g><path style="opacity:0.01" fill="#2d2d2d" d="M 221.5,434.5 C 224.152,434.41 226.485,435.076 228.5,436.5C 225.848,436.59 223.515,435.924 221.5,434.5 Z"/></g>
<g><path style="opacity:0.018" fill="#1a1a1a" d="M 25.5,434.5 C 26.3382,434.842 26.6716,435.508 26.5,436.5C 24.3023,436.591 23.9689,435.925 25.5,434.5 Z"/></g>
<g><path style="opacity:0.004" fill="#2d2d2d" d="M 390.5,433.5 C 390.5,435.5 389.5,436.5 387.5,436.5C 388.167,435.167 389.167,434.167 390.5,433.5 Z"/></g>
<g><path style="opacity:0.004" fill="#373737" d="M 387.5,436.5 C 387.5,437.833 386.833,438.5 385.5,438.5C 385.833,437.5 386.5,436.833 387.5,436.5 Z"/></g>
<g><path style="opacity:0.004" fill="#121212" d="M 27.5,439.5 C 28.3382,439.842 28.6716,440.508 28.5,441.5C 26.3023,441.591 25.9689,440.925 27.5,439.5 Z"/></g>
<g><path style="opacity:0.004" fill="#2b2b2b" d="M 385.5,438.5 C 385.5,440.5 384.5,441.5 382.5,441.5C 383.167,440.167 384.167,439.167 385.5,438.5 Z"/></g>
<g><path style="opacity:0.851" fill="#828282" d="M 321.5,439.5 C 320.415,441.587 318.749,442.92 316.5,443.5C 317.585,441.413 319.251,440.08 321.5,439.5 Z"/></g>
<g><path style="opacity:0.008" fill="#292929" d="M 382.5,441.5 C 382.5,443.5 381.5,444.5 379.5,444.5C 380.167,443.167 381.167,442.167 382.5,441.5 Z"/></g>
<g><path style="opacity:0.565" fill="#4f4f4f" d="M 316.5,443.5 C 316.027,444.906 315.027,445.573 313.5,445.5C 313.973,444.094 314.973,443.427 316.5,443.5 Z"/></g>
<g><path style="opacity:0.875" fill="#606060" d="M 30.5,445.5 C 32.4456,446.035 33.4456,447.368 33.5,449.5C 32.0256,448.564 31.0256,447.23 30.5,445.5 Z"/></g>
<g><path style="opacity:0.38" fill="#5b5b5b" d="M 161.5,444.5 C 161.573,446.027 160.906,447.027 159.5,447.5C 159.427,445.973 160.094,444.973 161.5,444.5 Z"/></g>
<g><path style="opacity:0.561" fill="#484848" d="M 313.5,445.5 C 313.027,446.906 312.027,447.573 310.5,447.5C 310.973,446.094 311.973,445.427 313.5,445.5 Z"/></g>
<g><path style="opacity:0.004" fill="#242424" d="M 379.5,444.5 C 379.167,446.833 377.833,448.167 375.5,448.5C 376.5,446.833 377.833,445.5 379.5,444.5 Z"/></g>
<g><path style="opacity:0.773" fill="#5b5b5b" d="M 309.5,447.5 C 308.365,449.213 306.698,449.88 304.5,449.5C 305.93,448.463 307.597,447.796 309.5,447.5 Z"/></g>
<g><path style="opacity:0.008" fill="#282828" d="M 33.5,449.5 C 34.9063,449.973 35.573,450.973 35.5,452.5C 34.0937,452.027 33.427,451.027 33.5,449.5 Z"/></g>
<g><path style="opacity:0.09" fill="#414141" d="M 303.5,449.5 C 303.082,450.222 302.416,450.722 301.5,451C 296.316,451.816 291.316,451.65 286.5,450.5C 292.212,450.687 297.879,450.354 303.5,449.5 Z"/></g>
<g><path style="opacity:0.008" fill="#0e0e0e" d="M 36.5,453.5 C 37.9744,454.436 38.9744,455.77 39.5,457.5C 37.5544,456.965 36.5544,455.632 36.5,453.5 Z"/></g>
<g><path style="opacity:0.647" fill="#454545" d="M 39.5,457.5 C 41.7488,458.08 43.4154,459.413 44.5,461.5C 43.8826,461.611 43.3826,461.944 43,462.5C 42.0027,460.677 40.8361,459.01 39.5,457.5 Z"/></g>
<g><path style="opacity:0.792" fill="#656565" d="M 44.5,461.5 C 46.4044,461.738 47.7377,462.738 48.5,464.5C 46.5956,464.262 45.2623,463.262 44.5,461.5 Z"/></g>
<g><path style="opacity:0.008" fill="#1e1e1e" d="M 130.5,461.5 C 130.027,462.906 129.027,463.573 127.5,463.5C 127.973,462.094 128.973,461.427 130.5,461.5 Z"/></g>
<g><path style="opacity:0.831" fill="#535353" d="M 154.5,462.5 C 159.55,462.855 164.217,464.188 168.5,466.5C 163.563,465.739 158.897,464.405 154.5,462.5 Z"/></g>
<g><path style="opacity:0.51" fill="#6a6a6a" d="M 48.5,464.5 C 50.0269,464.427 51.0269,465.094 51.5,466.5C 49.9731,466.573 48.9731,465.906 48.5,464.5 Z"/></g>
<g><path style="opacity:0.647" fill="#484848" d="M 169.5,466.5 C 171.898,466.259 173.898,466.926 175.5,468.5C 173.214,468.405 171.214,467.738 169.5,466.5 Z"/></g>
<g><path style="opacity:0.392" fill="#5d5d5d" d="M 51.5,466.5 C 53.0269,466.427 54.0269,467.094 54.5,468.5C 52.9731,468.573 51.9731,467.906 51.5,466.5 Z"/></g>
<g><path style="opacity:0.831" fill="#717171" d="M 177.5,468.5 C 180.152,468.41 182.485,469.076 184.5,470.5C 181.848,470.59 179.515,469.924 177.5,468.5 Z"/></g>
<g><path style="opacity:0.478" fill="#545454" d="M 184.5,470.5 C 187.152,470.41 189.485,471.076 191.5,472.5C 188.848,472.59 186.515,471.924 184.5,470.5 Z"/></g>
<g><path style="opacity:0.925" fill="#767676" d="M 62.5,472.5 C 64.698,472.12 66.3646,472.787 67.5,474.5C 65.597,474.204 63.9303,473.537 62.5,472.5 Z"/></g>
<g><path style="opacity:0.686" fill="#4b4b4b" d="M 67.5,474.5 C 70.7814,474.42 73.7814,475.087 76.5,476.5C 73.2186,476.58 70.2186,475.913 67.5,474.5 Z"/></g>
<g><path style="opacity:0.627" fill="#6c6c6c" d="M 196.5,473.5 C 199.152,473.41 201.485,474.076 203.5,475.5C 200.848,475.59 198.515,474.924 196.5,473.5 Z"/></g>
<g><path style="opacity:0.014" fill="#1e1e1e" d="M 106.5,474.5 C 104.162,476.04 101.495,476.706 98.5,476.5C 100.905,475.232 103.572,474.565 106.5,474.5 Z"/></g>
<g><path style="opacity:0.51" fill="#585858" d="M 207.5,476.5 C 210.152,476.41 212.485,477.076 214.5,478.5C 211.848,478.59 209.515,477.924 207.5,476.5 Z"/></g>
<g><path style="opacity:0.659" fill="#757575" d="M 227.5,481.5 C 230.152,481.41 232.485,482.076 234.5,483.5C 231.848,483.59 229.515,482.924 227.5,481.5 Z"/></g>
<g><path style="opacity:0.004" fill="#242424" d="M 342.5,481.5 C 341.738,483.262 340.404,484.262 338.5,484.5C 339.262,482.738 340.596,481.738 342.5,481.5 Z"/></g>
<g><path style="opacity:0.98" fill="#7e7e7e" d="M 238.5,484.5 C 242.162,484.723 245.495,485.723 248.5,487.5C 244.838,487.277 241.505,486.277 238.5,484.5 Z"/></g>
<g><path style="opacity:0.557" fill="#636363" d="M 253.5,488.5 C 256.152,488.41 258.485,489.076 260.5,490.5C 257.848,490.59 255.515,489.924 253.5,488.5 Z"/></g>
<g><path style="opacity:0.557" fill="#646464" d="M 261.5,490.5 C 264.152,490.41 266.485,491.076 268.5,492.5C 265.848,492.59 263.515,491.924 261.5,490.5 Z"/></g>
<g><path style="opacity:0.58" fill="#676767" d="M 269.5,492.5 C 272.152,492.41 274.485,493.076 276.5,494.5C 273.848,494.59 271.515,493.924 269.5,492.5 Z"/></g>
<g><path style="opacity:0.722" fill="#5a5a5a" d="M 277.5,494.5 C 281.761,494.898 285.761,495.898 289.5,497.5C 285.163,497.416 281.163,496.416 277.5,494.5 Z"/></g>
</svg>
