<?xml version="1.0" encoding="UTF-8"?>
<!DOCTYPE svg PUBLIC "-//W3C//DTD SVG 1.1//EN" "http://www.w3.org/Graphics/SVG/1.1/DTD/svg11.dtd">
<svg xmlns="http://www.w3.org/2000/svg" version="1.1" width="387px" height="470px" style="shape-rendering:geometricPrecision; text-rendering:geometricPrecision; image-rendering:optimizeQuality; fill-rule:evenodd; clip-rule:evenodd" xmlns:xlink="http://www.w3.org/1999/xlink">
<g><path style="opacity:0.998" fill="#1781f1" d="M 190.5,-0.5 C 192.5,-0.5 194.5,-0.5 196.5,-0.5C 214.724,0.352362 231.057,6.35236 245.5,17.5C 246.539,19.5311 248.205,20.8645 250.5,21.5C 266.459,35.0689 275.959,52.4022 279,73.5C 281.68,93.7561 278.014,112.756 268,130.5C 265.685,134.638 262.852,138.305 259.5,141.5C 256.757,143.239 254.757,145.573 253.5,148.5C 251.053,148.385 249.053,147.385 247.5,145.5C 243.221,142.267 239.888,138.267 237.5,133.5C 243.065,126.72 247.898,119.386 252,111.5C 260.943,87.701 257.776,65.701 242.5,45.5C 240.833,41.8333 238.167,39.1667 234.5,37.5C 233.115,36.3862 231.615,35.3862 230,34.5C 229.517,35.448 229.351,36.448 229.5,37.5C 221.5,37.5 213.5,37.5 205.5,37.5C 203.067,37.7856 203.067,38.4523 205.5,39.5C 207.897,43.7965 209.897,48.2965 211.5,53C 214.482,53.498 217.482,53.6646 220.5,53.5C 220.833,53.5 221.167,53.5 221.5,53.5C 224.167,53.5 226.833,53.5 229.5,53.5C 229.5,56.8333 229.5,60.1667 229.5,63.5C 227.833,63.5 226.167,63.5 224.5,63.5C 224.167,63.5 223.833,63.5 223.5,63.5C 219.029,62.9106 215.029,63.5772 211.5,65.5C 210.566,66.5676 210.232,67.901 210.5,69.5C 206.202,80.6605 198.202,87.6605 186.5,90.5C 186.167,90.5 185.833,90.5 185.5,90.5C 182.478,90.804 179.478,91.304 176.5,92C 184.618,101.073 192.618,110.24 200.5,119.5C 195.33,120.238 190.163,120.904 185,121.5C 176.402,112.231 167.736,102.897 159,93.5C 158.501,89.5138 158.334,85.5138 158.5,81.5C 167.382,81.8066 176.049,80.6399 184.5,78C 191.053,75.2888 194.72,70.4554 195.5,63.5C 183.167,63.5 170.833,63.5 158.5,63.5C 158.5,60.1667 158.5,56.8333 158.5,53.5C 170.838,53.6665 183.171,53.4999 195.5,53C 192.153,45.8178 186.487,41.8178 178.5,41C 171.842,40.5004 165.175,40.3337 158.5,40.5C 158.799,38.396 158.466,36.396 157.5,34.5C 134.345,52.4599 126.178,75.7932 133,104.5C 135.541,112.586 139.375,119.919 144.5,126.5C 146.094,129.764 148.427,132.431 151.5,134.5C 151.291,135.922 150.791,137.255 150,138.5C 146.85,142.617 143.35,146.451 139.5,150C 138.167,150.667 136.833,150.667 135.5,150C 111.145,126.445 102.645,97.9454 110,64.5C 113.343,51.4705 119.509,40.1372 128.5,30.5C 132.167,27.5 135.5,24.1667 138.5,20.5C 148.599,10.9486 160.599,4.78193 174.5,2C 179.972,1.13293 185.306,0.299593 190.5,-0.5 Z M 173.5,25.5 C 176.428,25.4349 179.095,24.7682 181.5,23.5C 188.49,23.8367 195.657,23.8367 203,23.5C 208.406,24.1911 213.573,25.6911 218.5,28C 201.841,28.4461 185.174,28.4461 168.5,28C 170.491,27.6264 172.158,26.793 173.5,25.5 Z M 205.5,39.5 C 212.439,42.1057 217.439,46.7724 220.5,53.5C 217.482,53.6646 214.482,53.498 211.5,53C 209.897,48.2965 207.897,43.7965 205.5,39.5 Z M 223.5,63.5 C 223.5,65.1667 223.5,66.8333 223.5,68.5C 219.5,68.5 215.5,68.5 211.5,68.5C 211.5,67.5 211.5,66.5 211.5,65.5C 215.029,63.5772 219.029,62.9106 223.5,63.5 Z"/></g>
<g><path style="opacity:0.235" fill="#61a4eb" d="M 245.5,17.5 C 247.754,18.1237 249.421,19.457 250.5,21.5C 248.205,20.8645 246.539,19.5311 245.5,17.5 Z"/></g>
<g><path style="opacity:0.233" fill="#6aabee" d="M 181.5,23.5 C 179.095,24.7682 176.428,25.4349 173.5,25.5C 175.838,23.9605 178.505,23.2938 181.5,23.5 Z"/></g>
<g><path style="opacity:0.592" fill="#5ba0e6" d="M 138.5,20.5 C 135.5,24.1667 132.167,27.5 128.5,30.5C 130.833,26.1667 134.167,22.8333 138.5,20.5 Z"/></g>
<g><path style="opacity:0.6" fill="#61a4e9" d="M 234.5,37.5 C 238.167,39.1667 240.833,41.8333 242.5,45.5C 239.5,43.1667 236.833,40.5 234.5,37.5 Z"/></g>
<g><path style="opacity:0.188" fill="#9b9b9b" d="M 205.5,37.5 C 213.169,40.5028 218.503,45.8361 221.5,53.5C 221.167,53.5 220.833,53.5 220.5,53.5C 217.439,46.7724 212.439,42.1057 205.5,39.5C 203.067,38.4523 203.067,37.7856 205.5,37.5 Z"/></g>
<g><path style="opacity:0.11" fill="#f6f6f6" d="M 223.5,63.5 C 223.833,63.5 224.167,63.5 224.5,63.5C 224.5,65.5 224.5,67.5 224.5,69.5C 219.833,69.5 215.167,69.5 210.5,69.5C 210.232,67.901 210.566,66.5676 211.5,65.5C 211.5,66.5 211.5,67.5 211.5,68.5C 215.5,68.5 219.5,68.5 223.5,68.5C 223.5,66.8333 223.5,65.1667 223.5,63.5 Z"/></g>
<g><path style="opacity:0.157" fill="#cacaca" d="M 185.5,90.5 C 185.833,90.5 186.167,90.5 186.5,90.5C 188.355,90.272 189.188,90.9387 189,92.5C 187.698,91.9152 186.531,91.2485 185.5,90.5 Z"/></g>
<g><path style="opacity:0.098" fill="#eeeeee" d="M 223.5,117.5 C 224.404,118.209 224.737,119.209 224.5,120.5C 223.448,120.649 222.448,120.483 221.5,120C 222.756,119.583 223.423,118.75 223.5,117.5 Z"/></g>
<g><path style="opacity:1" fill="#0980f2" d="M 324.5,222.5 C 237.237,223.497 149.904,223.831 62.5,223.5C 52.5004,206.696 49.6671,188.696 54,169.5C 58.4422,153.395 68.9422,146.562 85.5,149C 99.8777,152.844 114.211,156.844 128.5,161C 133.39,163.254 138.057,162.92 142.5,160C 148.019,154.449 153.186,148.615 158,142.5C 165.449,133.117 174.782,126.45 186,122.5C 197,120.375 206.834,122.875 215.5,130C 223.68,137.515 231.18,145.681 238,154.5C 242.893,161.705 249.393,163.872 257.5,161C 271.878,157.156 286.211,153.156 300.5,149C 315.075,146.535 325.242,152.035 331,165.5C 336.79,185.509 334.623,204.509 324.5,222.5 Z"/></g>
<g><path style="opacity:0.6" fill="#5fa3e9" d="M 144.5,126.5 C 147.573,128.569 149.906,131.236 151.5,134.5C 148.427,132.431 146.094,129.764 144.5,126.5 Z"/></g>
<g><path style="opacity:0.235" fill="#5fa3e8" d="M 247.5,145.5 C 249.053,147.385 251.053,148.385 253.5,148.5C 250.336,150.191 248.336,149.191 247.5,145.5 Z"/></g>
<g><path style="opacity:0.235" fill="#6daff0" d="M 259.5,141.5 C 258.243,144.427 256.243,146.761 253.5,148.5C 254.757,145.573 256.757,143.239 259.5,141.5 Z"/></g>
<g><path style="opacity:0.855" fill="#1c86ee" d="M 324.5,222.5 C 281.172,223.833 237.505,224.5 193.5,224.5C 149.665,224.5 105.999,224.167 62.5,223.5C 149.904,223.831 237.237,223.497 324.5,222.5 Z"/></g>
<g><path style="opacity:0.612" fill="#4f98df" d="M 145.5,245.5 C 117.789,245.184 90.1224,245.517 62.5,246.5C 62.6107,245.883 62.944,245.383 63.5,245C 91.0031,244.17 118.336,244.336 145.5,245.5 Z"/></g>
<g><path style="opacity:0.612" fill="#4f98df" d="M 322.5,245.5 C 295.498,245.333 268.498,245.5 241.5,246C 242.056,246.383 242.389,246.883 242.5,247.5C 240.952,247.179 240.285,246.179 240.5,244.5C 268.005,244.169 295.338,244.502 322.5,245.5 Z"/></g>
<g><path style="opacity:1" fill="#0d80f2" d="M 145.5,245.5 C 139.636,250.86 133.803,256.527 128,262.5C 119.451,273.311 114.951,285.644 114.5,299.5C 114.335,302.85 114.502,306.183 115,309.5C 115.322,312.666 116.489,315.333 118.5,317.5C 120.18,320.86 121.847,324.193 123.5,327.5C 124.911,329.914 126.911,331.581 129.5,332.5C 139.813,337.767 150.146,337.6 160.5,332C 163.556,330.144 166.556,328.311 169.5,326.5C 174.167,323.833 177.833,320.167 180.5,315.5C 184.922,308.323 189.089,300.99 193,293.5C 196.979,299.448 200.479,305.781 203.5,312.5C 204.08,314.749 205.413,316.415 207.5,317.5C 215.74,326.456 225.74,332.623 237.5,336C 254.12,337.259 264.62,329.759 269,313.5C 274.085,294.661 270.585,277.661 258.5,262.5C 255.5,257.5 251.5,253.5 246.5,250.5C 244.596,250.262 243.262,249.262 242.5,247.5C 242.389,246.883 242.056,246.383 241.5,246C 268.498,245.5 295.498,245.333 322.5,245.5C 324.749,246.08 326.415,247.413 327.5,249.5C 332.5,255.167 337.833,260.5 343.5,265.5C 360.179,283.166 372.012,303.833 379,327.5C 382.359,339.466 384.859,351.466 386.5,363.5C 386.5,373.5 386.5,383.5 386.5,393.5C 385.833,395.5 385.167,397.5 384.5,399.5C 383.076,401.515 382.41,403.848 382.5,406.5C 377.172,423.67 366.506,436.504 350.5,445C 330.622,454.959 309.622,461.292 287.5,464C 259.767,467.212 232.1,469.045 204.5,469.5C 197.167,469.5 189.833,469.5 182.5,469.5C 162.963,468.824 143.297,467.824 123.5,466.5C 115.737,464.696 107.737,463.696 99.5,463.5C 74.4029,461.3 51.0696,453.8 29.5,441C 12.2359,428.903 2.23591,412.403 -0.5,391.5C -0.5,383.167 -0.5,374.833 -0.5,366.5C 2.93263,332.3 14.766,301.3 35,273.5C 37.6682,269.666 40.8348,266.333 44.5,263.5C 49.1667,259.5 53.5,255.167 57.5,250.5C 58.5846,248.413 60.2512,247.08 62.5,246.5C 90.1224,245.517 117.789,245.184 145.5,245.5 Z"/></g>
<g><path style="opacity:0.235" fill="#64a7eb" d="M 327.5,249.5 C 333.833,253.833 339.167,259.167 343.5,265.5C 337.833,260.5 332.5,255.167 327.5,249.5 Z"/></g>
<g><path style="opacity:1" fill="#1d82f1" d="M 143.5,275.5 C 146.833,272.833 149.833,269.833 152.5,266.5C 160.932,259.452 170.599,254.785 181.5,252.5C 179.646,271.281 173.813,288.615 164,304.5C 157.838,312.051 150.004,315.884 140.5,316C 132.779,304.072 132.613,291.906 140,279.5C 140.949,277.907 142.115,276.574 143.5,275.5 Z"/></g>
<g><path style="opacity:1" fill="#1c82f1" d="M 248.5,284.5 C 250.101,290.711 250.768,297.044 250.5,303.5C 250.695,314.494 245.695,318.328 235.5,315C 232.734,313.629 230.401,311.796 228.5,309.5C 227.167,307.5 225.5,305.833 223.5,304.5C 218.643,299.781 215.143,294.114 213,287.5C 208.772,276.193 206.272,264.527 205.5,252.5C 220.188,256.094 232.688,263.428 243,274.5C 245.619,277.406 247.453,280.739 248.5,284.5 Z"/></g>
<g><path style="opacity:0.244" fill="#66a8ed" d="M 246.5,250.5 C 251.5,253.5 255.5,257.5 258.5,262.5C 254.167,258.833 250.167,254.833 246.5,250.5 Z"/></g>
<g><path style="opacity:0.486" fill="#6dafef" d="M 57.5,250.5 C 53.5,255.167 49.1667,259.5 44.5,263.5C 47.8333,258.167 52.1667,253.833 57.5,250.5 Z"/></g>
<g><path style="opacity:0.58" fill="#5fa3e8" d="M 152.5,266.5 C 149.833,269.833 146.833,272.833 143.5,275.5C 145.5,271.5 148.5,268.5 152.5,266.5 Z"/></g>
<g><path style="opacity:0.392" fill="#61a4ea" d="M 248.5,284.5 C 251.508,290.609 252.174,296.942 250.5,303.5C 250.768,297.044 250.101,290.711 248.5,284.5 Z"/></g>
<g><path style="opacity:0.235" fill="#71b2f2" d="M 223.5,304.5 C 225.5,305.833 227.167,307.5 228.5,309.5C 225.833,308.833 224.167,307.167 223.5,304.5 Z"/></g>
<g><path style="opacity:0.937" fill="#5499e6" d="M 114.5,299.5 C 115.182,305.519 116.515,311.519 118.5,317.5C 116.489,315.333 115.322,312.666 115,309.5C 114.502,306.183 114.335,302.85 114.5,299.5 Z"/></g>
<g><path style="opacity:0.518" fill="#5a9fe6" d="M 203.5,312.5 C 205.587,313.585 206.92,315.251 207.5,317.5C 205.413,316.415 204.08,314.749 203.5,312.5 Z"/></g>
<g><path style="opacity:0.612" fill="#5b9fe7" d="M 180.5,315.5 C 177.833,320.167 174.167,323.833 169.5,326.5C 172.833,322.5 176.5,318.833 180.5,315.5 Z"/></g>
<g><path style="opacity:0.248" fill="#70b2f2" d="M 123.5,327.5 C 126.089,328.419 128.089,330.086 129.5,332.5C 126.911,331.581 124.911,329.914 123.5,327.5 Z"/></g>
<g><path style="opacity:0.241" fill="#61a4ea" d="M 384.5,399.5 C 384.59,402.152 383.924,404.485 382.5,406.5C 382.41,403.848 383.076,401.515 384.5,399.5 Z"/></g>
<g><path style="opacity:0.996" fill="#458fe1" d="M 99.5,463.5 C 107.737,463.696 115.737,464.696 123.5,466.5C 115.283,466.14 107.283,465.14 99.5,463.5 Z"/></g>
</svg>
