<?xml version="1.0" encoding="UTF-8"?>
<!DOCTYPE svg PUBLIC "-//W3C//DTD SVG 1.1//EN" "http://www.w3.org/Graphics/SVG/1.1/DTD/svg11.dtd">
<svg xmlns="http://www.w3.org/2000/svg" version="1.1" width="200px" height="200px" style="shape-rendering:geometricPrecision; text-rendering:geometricPrecision; image-rendering:optimizeQuality; fill-rule:evenodd; clip-rule:evenodd" xmlns:xlink="http://www.w3.org/1999/xlink">
<g><path style="opacity:1" fill="#fdfefd" d="M -0.5,-0.5 C 66.1667,-0.5 132.833,-0.5 199.5,-0.5C 199.5,66.1667 199.5,132.833 199.5,199.5C 132.833,199.5 66.1667,199.5 -0.5,199.5C -0.5,132.833 -0.5,66.1667 -0.5,-0.5 Z"/></g>
<g><path style="opacity:1" fill="#436cf3" d="M 109.5,10.5 C 105.71,10.0077 105.044,10.841 107.5,13C 107.167,13.1667 106.833,13.3333 106.5,13.5C 104.89,12.4478 103.223,12.4478 101.5,13.5C 99.1854,13.2009 99.1854,12.3675 101.5,11C 99.2199,10.7674 97.2199,9.93404 95.5,8.5C 93.9984,9.08308 92.6651,9.91641 91.5,11C 94.4873,14.8919 98.4873,16.5586 103.5,16C 98.8333,16.6667 94.1667,16.6667 89.5,16C 88.1509,15.2276 87.3176,14.0609 87,12.5C 84.9747,14.6931 82.4747,15.6931 79.5,15.5C 84.7812,11.8541 90.4479,8.68745 96.5,6C 98.5,5.33333 100.5,5.33333 102.5,6C 104.993,7.41859 107.326,8.91859 109.5,10.5 Z"/></g>
<g><path style="opacity:1" fill="#fafcfc" d="M 143.5,61.5 C 140.023,63.2585 136.357,63.7585 132.5,63C 117.21,47.7272 99.5434,44.3939 79.5,53C 71.2491,58.8896 69.4158,66.3896 74,75.5C 79.922,81.5341 87.0887,85.2007 95.5,86.5C 105.476,89.2379 115.476,92.2379 125.5,95.5C 148.981,105.468 157.148,122.801 150,147.5C 145.798,157.367 138.632,164.2 128.5,168C 122.84,170.258 117.173,172.092 111.5,173.5C 92.3124,175.309 74.6458,171.142 58.5,161C 55.2203,158.225 52.5537,155.058 50.5,151.5C 50.5,150.833 50.5,150.167 50.5,149.5C 50.3677,146.43 50.701,143.43 51.5,140.5C 52.9108,138.086 54.9108,136.419 57.5,135.5C 60.2788,135.279 62.9455,135.612 65.5,136.5C 68.9888,141.654 73.6555,145.321 79.5,147.5C 83.0845,149.806 87.0845,151.139 91.5,151.5C 103.581,154.173 114.914,152.34 125.5,146C 135.971,136.949 135.971,127.949 125.5,119C 112.817,112.826 99.4841,108.492 85.5,106C 74.8894,103.281 65.7227,98.1144 58,90.5C 56.2347,87.9679 54.7347,85.3013 53.5,82.5C 51.7572,75.2974 51.0906,67.9641 51.5,60.5C 52.9751,51.7196 56.9751,44.2196 63.5,38C 77.9418,27.934 93.9418,24.6007 111.5,28C 121.054,29.2136 129.72,32.5469 137.5,38C 145.629,44.3325 147.629,52.1658 143.5,61.5 Z"/></g>
<g><path style="opacity:1" fill="#3d6af9" d="M 109.5,10.5 C 132.453,21.3099 155.12,32.6432 177.5,44.5C 175.179,44.7711 173.179,44.1045 171.5,42.5C 170.833,43.1667 170.167,43.8333 169.5,44.5C 167.588,42.8439 165.588,42.5105 163.5,43.5C 164.167,44.1667 164.833,44.8333 165.5,45.5C 165,45.8333 164.5,46.1667 164,46.5C 161.272,46.2358 158.939,45.2358 157,43.5C 156.241,45.6349 154.741,46.9682 152.5,47.5C 152.251,46.4179 152.085,45.0846 152,43.5C 150.022,43.7377 148.355,45.0711 147,47.5C 146.667,51.5 146.333,55.5 146,59.5C 145.583,60.756 144.75,61.4226 143.5,61.5C 147.629,52.1658 145.629,44.3325 137.5,38C 129.72,32.5469 121.054,29.2136 111.5,28C 93.9418,24.6007 77.9418,27.934 63.5,38C 56.9751,44.2196 52.9751,51.7196 51.5,60.5C 51.1667,60.5 50.8333,60.5 50.5,60.5C 50.732,56.5425 49.8987,52.8758 48,49.5C 47.1004,48.2298 45.9337,47.2298 44.5,46.5C 47.5222,45.9961 48.6889,44.3294 48,41.5C 45.6667,42.8333 43.3333,44.1667 41,45.5C 40.5065,43.8659 40.3398,42.1992 40.5,40.5C 37.3116,40.5116 34.4783,41.5116 32,43.5C 29.8463,42.7479 27.6797,42.5812 25.5,43C 26.3081,43.3076 26.9747,43.8076 27.5,44.5C 25.9362,46.603 23.9362,47.4363 21.5,47C 25.5537,45.0588 25.2203,44.2254 20.5,44.5C 39.739,34.0474 59.4057,24.3808 79.5,15.5C 82.4747,15.6931 84.9747,14.6931 87,12.5C 87.3176,14.0609 88.1509,15.2276 89.5,16C 94.1667,16.6667 98.8333,16.6667 103.5,16C 98.4873,16.5586 94.4873,14.8919 91.5,11C 92.6651,9.91641 93.9984,9.08308 95.5,8.5C 97.2199,9.93404 99.2199,10.7674 101.5,11C 99.1854,12.3675 99.1854,13.2009 101.5,13.5C 103.223,12.4478 104.89,12.4478 106.5,13.5C 106.833,13.3333 107.167,13.1667 107.5,13C 105.044,10.841 105.71,10.0077 109.5,10.5 Z"/></g>
<g><path style="opacity:1" fill="#3a69fb" d="M 50.5,60.5 C 50.3338,66.8421 50.5005,73.1754 51,79.5C 51.3768,80.9423 52.2101,81.9423 53.5,82.5C 54.7347,85.3013 56.2347,87.9679 58,90.5C 65.7227,98.1144 74.8894,103.281 85.5,106C 99.4841,108.492 112.817,112.826 125.5,119C 135.971,127.949 135.971,136.949 125.5,146C 114.914,152.34 103.581,154.173 91.5,151.5C 87.767,149.589 83.767,148.256 79.5,147.5C 73.6555,145.321 68.9888,141.654 65.5,136.5C 64.6661,135.252 63.3328,134.585 61.5,134.5C 59.9549,134.511 58.6216,134.844 57.5,135.5C 54.9108,136.419 52.9108,138.086 51.5,140.5C 50.8826,140.611 50.3826,140.944 50,141.5C 49.1993,144.367 49.3659,147.034 50.5,149.5C 50.5,150.167 50.5,150.833 50.5,151.5C 50.7733,153.451 50.1066,154.951 48.5,156C 49.8088,157.751 49.4755,159.251 47.5,160.5C 49.0284,161.861 50.6951,163.028 52.5,164C 49.8015,166.077 47.6349,165.577 46,162.5C 39.7152,164.945 39.2152,164.112 44.5,160C 40.4761,159.503 36.4761,159.669 32.5,160.5C 27.2407,159.204 22.574,156.87 18.5,153.5C 18.3333,117.832 18.5,82.1651 19,46.5C 19.7172,45.9558 20.2172,45.2891 20.5,44.5C 25.2203,44.2254 25.5537,45.0588 21.5,47C 23.9362,47.4363 25.9362,46.603 27.5,44.5C 26.9747,43.8076 26.3081,43.3076 25.5,43C 27.6797,42.5812 29.8463,42.7479 32,43.5C 34.4783,41.5116 37.3116,40.5116 40.5,40.5C 40.3398,42.1992 40.5065,43.8659 41,45.5C 43.3333,44.1667 45.6667,42.8333 48,41.5C 48.6889,44.3294 47.5222,45.9961 44.5,46.5C 45.9337,47.2298 47.1004,48.2298 48,49.5C 49.8987,52.8758 50.732,56.5425 50.5,60.5 Z"/></g>
<g><path style="opacity:1" fill="#3b69fb" d="M 177.5,44.5 C 178.391,45.1098 179.391,45.4431 180.5,45.5C 180.826,81.9062 180.493,118.239 179.5,154.5C 179.167,154.5 178.833,154.5 178.5,154.5C 176.973,154.427 175.973,155.094 175.5,156.5C 164.48,161.868 153.48,167.202 142.5,172.5C 140.973,172.427 139.973,173.094 139.5,174.5C 126.995,180.386 114.662,186.553 102.5,193C 101.333,193.167 100.167,193.333 99,193.5C 97.3189,193.392 96.1522,192.725 95.5,191.5C 95.5,190.5 95.5,189.5 95.5,188.5C 93.4727,188.662 91.4727,188.495 89.5,188C 90.8908,186.35 92.3908,185.85 94,186.5C 95.7844,185.333 95.7844,184.333 94,183.5C 91.2586,185.784 88.0919,186.784 84.5,186.5C 84.6766,184.019 83.6766,182.186 81.5,181C 83.8912,180.309 83.8912,179.309 81.5,178C 82.8333,177.333 84.1667,177.333 85.5,178C 88.0869,180.585 91.0869,181.085 94.5,179.5C 92.9716,178.139 91.3049,176.972 89.5,176C 96.9513,174.983 104.285,174.15 111.5,173.5C 117.173,172.092 122.84,170.258 128.5,168C 138.632,164.2 145.798,157.367 150,147.5C 157.148,122.801 148.981,105.468 125.5,95.5C 123.879,93.8828 121.879,92.7162 119.5,92C 122.014,90.7475 124.68,90.2475 127.5,90.5C 127.5,89.5 127.5,88.5 127.5,87.5C 122.75,89.5484 117.75,90.3818 112.5,90C 113.938,89.7811 115.271,89.2811 116.5,88.5C 114.046,87.3966 111.713,87.73 109.5,89.5C 102.946,88.0897 102.946,86.923 109.5,86C 106.819,83.9303 103.819,83.2636 100.5,84C 101.5,84.3333 102.5,84.6667 103.5,85C 100.986,86.2525 98.3198,86.7525 95.5,86.5C 87.0887,85.2007 79.922,81.5341 74,75.5C 69.4158,66.3896 71.2491,58.8896 79.5,53C 99.5434,44.3939 117.21,47.7272 132.5,63C 136.357,63.7585 140.023,63.2585 143.5,61.5C 144.75,61.4226 145.583,60.756 146,59.5C 146.333,55.5 146.667,51.5 147,47.5C 148.355,45.0711 150.022,43.7377 152,43.5C 152.085,45.0846 152.251,46.4179 152.5,47.5C 154.741,46.9682 156.241,45.6349 157,43.5C 158.939,45.2358 161.272,46.2358 164,46.5C 164.5,46.1667 165,45.8333 165.5,45.5C 164.833,44.8333 164.167,44.1667 163.5,43.5C 165.588,42.5105 167.588,42.8439 169.5,44.5C 170.167,43.8333 170.833,43.1667 171.5,42.5C 173.179,44.1045 175.179,44.7711 177.5,44.5 Z"/></g>
<g><path style="opacity:1" fill="#5c7cef" d="M 20.5,44.5 C 20.2172,45.2891 19.7172,45.9558 19,46.5C 18.5,82.1651 18.3333,117.832 18.5,153.5C 17.3357,117.669 17.169,81.669 18,45.5C 18.6708,44.7476 19.5041,44.4142 20.5,44.5 Z"/></g>
<g><path style="opacity:1" fill="#91a9fe" d="M 180.5,45.5 C 181.167,63.4969 181.5,81.6636 181.5,100C 181.5,118.512 180.833,136.679 179.5,154.5C 180.493,118.239 180.826,81.9062 180.5,45.5 Z"/></g>
<g><path style="opacity:1" fill="#5f7de9" d="M 50.5,60.5 C 50.8333,60.5 51.1667,60.5 51.5,60.5C 51.0906,67.9641 51.7572,75.2974 53.5,82.5C 52.2101,81.9423 51.3768,80.9423 51,79.5C 50.5005,73.1754 50.3338,66.8421 50.5,60.5 Z"/></g>
<g><path style="opacity:1" fill="#4670f3" d="M 125.5,95.5 C 115.476,92.2379 105.476,89.2379 95.5,86.5C 98.3198,86.7525 100.986,86.2525 103.5,85C 102.5,84.6667 101.5,84.3333 100.5,84C 103.819,83.2636 106.819,83.9303 109.5,86C 102.946,86.923 102.946,88.0897 109.5,89.5C 111.713,87.73 114.046,87.3966 116.5,88.5C 115.271,89.2811 113.938,89.7811 112.5,90C 117.75,90.3818 122.75,89.5484 127.5,87.5C 127.5,88.5 127.5,89.5 127.5,90.5C 124.68,90.2475 122.014,90.7475 119.5,92C 121.879,92.7162 123.879,93.8828 125.5,95.5 Z"/></g>
<g><path style="opacity:1" fill="#7692eb" d="M 57.5,135.5 C 58.6216,134.844 59.9549,134.511 61.5,134.5C 63.3328,134.585 64.6661,135.252 65.5,136.5C 62.9455,135.612 60.2788,135.279 57.5,135.5 Z"/></g>
<g><path style="opacity:1" fill="#83a0e7" d="M 51.5,140.5 C 50.701,143.43 50.3677,146.43 50.5,149.5C 49.3659,147.034 49.1993,144.367 50,141.5C 50.3826,140.944 50.8826,140.611 51.5,140.5 Z"/></g>
<g><path style="opacity:1" fill="#6081e3" d="M 79.5,147.5 C 83.767,148.256 87.767,149.589 91.5,151.5C 87.0845,151.139 83.0845,149.806 79.5,147.5 Z"/></g>
<g><path style="opacity:1" fill="#90a7eb" d="M 178.5,154.5 C 178.027,155.906 177.027,156.573 175.5,156.5C 175.973,155.094 176.973,154.427 178.5,154.5 Z"/></g>
<g><path style="opacity:1" fill="#92a8ec" d="M 142.5,172.5 C 142.027,173.906 141.027,174.573 139.5,174.5C 139.973,173.094 140.973,172.427 142.5,172.5 Z"/></g>
<g><path style="opacity:1" fill="#3f6cf6" d="M 50.5,151.5 C 52.5537,155.058 55.2203,158.225 58.5,161C 74.6458,171.142 92.3124,175.309 111.5,173.5C 104.285,174.15 96.9513,174.983 89.5,176C 91.3049,176.972 92.9716,178.139 94.5,179.5C 91.0869,181.085 88.0869,180.585 85.5,178C 84.1667,177.333 82.8333,177.333 81.5,178C 83.8912,179.309 83.8912,180.309 81.5,181C 83.6766,182.186 84.6766,184.019 84.5,186.5C 88.0919,186.784 91.2586,185.784 94,183.5C 95.7844,184.333 95.7844,185.333 94,186.5C 92.3908,185.85 90.8908,186.35 89.5,188C 91.4727,188.495 93.4727,188.662 95.5,188.5C 95.5,189.5 95.5,190.5 95.5,191.5C 94.1266,191.657 92.7932,191.49 91.5,191C 71.673,180.756 52.0063,170.589 32.5,160.5C 36.4761,159.669 40.4761,159.503 44.5,160C 39.2152,164.112 39.7152,164.945 46,162.5C 47.6349,165.577 49.8015,166.077 52.5,164C 50.6951,163.028 49.0284,161.861 47.5,160.5C 49.4755,159.251 49.8088,157.751 48.5,156C 50.1066,154.951 50.7733,153.451 50.5,151.5 Z"/></g>
</svg>
